<?xml version="1.0" encoding="utf-8" standalone="no"?>
<!DOCTYPE svg PUBLIC "-//W3C//DTD SVG 1.1//EN"
  "http://www.w3.org/Graphics/SVG/1.1/DTD/svg11.dtd">
<!-- Created with matplotlib (https://matplotlib.org/) -->
<svg height="432pt" version="1.1" viewBox="0 0 648 432" width="648pt" xmlns="http://www.w3.org/2000/svg" xmlns:xlink="http://www.w3.org/1999/xlink">
 <metadata>
  <rdf:RDF xmlns:cc="http://creativecommons.org/ns#" xmlns:dc="http://purl.org/dc/elements/1.1/" xmlns:rdf="http://www.w3.org/1999/02/22-rdf-syntax-ns#">
   <cc:Work>
    <dc:type rdf:resource="http://purl.org/dc/dcmitype/StillImage"/>
    <dc:date>2022-04-12T09:14:32.866469</dc:date>
    <dc:format>image/svg+xml</dc:format>
    <dc:creator>
     <cc:Agent>
      <dc:title>Matplotlib v3.3.4, https://matplotlib.org/</dc:title>
     </cc:Agent>
    </dc:creator>
   </cc:Work>
  </rdf:RDF>
 </metadata>
 <defs>
  <style type="text/css">*{stroke-linecap:butt;stroke-linejoin:round;}</style>
 </defs>
 <g id="figure_1">
  <g id="patch_1">
   <path d="M 0 432 
L 648 432 
L 648 0 
L 0 0 
z
" style="fill:#ffffff;"/>
  </g>
  <g id="axes_1">
   <g id="patch_2">
    <path d="M 75.424375 368.950625 
L 622.439101 368.950625 
L 622.439101 41.580625 
L 75.424375 41.580625 
z
" style="fill:#eaeaf2;"/>
   </g>
   <g id="matplotlib.axis_1">
    <g id="xtick_1">
     <g id="line2d_1">
      <path clip-path="url(#p6d1b2bd8a5)" d="M 98.36139 368.950625 
L 98.36139 41.580625 
" style="fill:none;stroke:#ffffff;stroke-linecap:round;"/>
     </g>
     <g id="text_1">
      <!-- 0 -->
      <g style="fill:#262626;" transform="translate(93.773617 390.261016)scale(0.165 -0.165)">
       <defs>
        <path d="M 4.15625 35.296875 
Q 4.15625 48 6.765625 55.734375 
Q 9.375 63.484375 14.515625 67.671875 
Q 19.671875 71.875 27.484375 71.875 
Q 33.25 71.875 37.59375 69.546875 
Q 41.9375 67.234375 44.765625 62.859375 
Q 47.609375 58.5 49.21875 52.21875 
Q 50.828125 45.953125 50.828125 35.296875 
Q 50.828125 22.703125 48.234375 14.96875 
Q 45.65625 7.234375 40.5 3 
Q 35.359375 -1.21875 27.484375 -1.21875 
Q 17.140625 -1.21875 11.234375 6.203125 
Q 4.15625 15.140625 4.15625 35.296875 
z
M 13.1875 35.296875 
Q 13.1875 17.671875 17.3125 11.828125 
Q 21.4375 6 27.484375 6 
Q 33.546875 6 37.671875 11.859375 
Q 41.796875 17.71875 41.796875 35.296875 
Q 41.796875 52.984375 37.671875 58.78125 
Q 33.546875 64.59375 27.390625 64.59375 
Q 21.34375 64.59375 17.71875 59.46875 
Q 13.1875 52.9375 13.1875 35.296875 
z
" id="ArialMT-48"/>
       </defs>
       <use xlink:href="#ArialMT-48"/>
      </g>
     </g>
    </g>
    <g id="xtick_2">
     <g id="line2d_2">
      <path clip-path="url(#p6d1b2bd8a5)" d="M 201.737572 368.950625 
L 201.737572 41.580625 
" style="fill:none;stroke:#ffffff;stroke-linecap:round;"/>
     </g>
     <g id="text_2">
      <!-- 20 -->
      <g style="fill:#262626;" transform="translate(192.562025 390.261016)scale(0.165 -0.165)">
       <defs>
        <path d="M 50.34375 8.453125 
L 50.34375 0 
L 3.03125 0 
Q 2.9375 3.171875 4.046875 6.109375 
Q 5.859375 10.9375 9.828125 15.625 
Q 13.8125 20.3125 21.34375 26.46875 
Q 33.015625 36.03125 37.109375 41.625 
Q 41.21875 47.21875 41.21875 52.203125 
Q 41.21875 57.421875 37.46875 61 
Q 33.734375 64.59375 27.734375 64.59375 
Q 21.390625 64.59375 17.578125 60.78125 
Q 13.765625 56.984375 13.71875 50.25 
L 4.6875 51.171875 
Q 5.609375 61.28125 11.65625 66.578125 
Q 17.71875 71.875 27.9375 71.875 
Q 38.234375 71.875 44.234375 66.15625 
Q 50.25 60.453125 50.25 52 
Q 50.25 47.703125 48.484375 43.546875 
Q 46.734375 39.40625 42.65625 34.8125 
Q 38.578125 30.21875 29.109375 22.21875 
Q 21.1875 15.578125 18.9375 13.203125 
Q 16.703125 10.84375 15.234375 8.453125 
z
" id="ArialMT-50"/>
       </defs>
       <use xlink:href="#ArialMT-50"/>
       <use x="55.615234" xlink:href="#ArialMT-48"/>
      </g>
     </g>
    </g>
    <g id="xtick_3">
     <g id="line2d_3">
      <path clip-path="url(#p6d1b2bd8a5)" d="M 305.113754 368.950625 
L 305.113754 41.580625 
" style="fill:none;stroke:#ffffff;stroke-linecap:round;"/>
     </g>
     <g id="text_3">
      <!-- 40 -->
      <g style="fill:#262626;" transform="translate(295.938207 390.261016)scale(0.165 -0.165)">
       <defs>
        <path d="M 32.328125 0 
L 32.328125 17.140625 
L 1.265625 17.140625 
L 1.265625 25.203125 
L 33.9375 71.578125 
L 41.109375 71.578125 
L 41.109375 25.203125 
L 50.78125 25.203125 
L 50.78125 17.140625 
L 41.109375 17.140625 
L 41.109375 0 
z
M 32.328125 25.203125 
L 32.328125 57.46875 
L 9.90625 25.203125 
z
" id="ArialMT-52"/>
       </defs>
       <use xlink:href="#ArialMT-52"/>
       <use x="55.615234" xlink:href="#ArialMT-48"/>
      </g>
     </g>
    </g>
    <g id="xtick_4">
     <g id="line2d_4">
      <path clip-path="url(#p6d1b2bd8a5)" d="M 408.489936 368.950625 
L 408.489936 41.580625 
" style="fill:none;stroke:#ffffff;stroke-linecap:round;"/>
     </g>
     <g id="text_4">
      <!-- 60 -->
      <g style="fill:#262626;" transform="translate(399.314389 390.261016)scale(0.165 -0.165)">
       <defs>
        <path d="M 49.75 54.046875 
L 41.015625 53.375 
Q 39.84375 58.546875 37.703125 60.890625 
Q 34.125 64.65625 28.90625 64.65625 
Q 24.703125 64.65625 21.53125 62.3125 
Q 17.390625 59.28125 14.984375 53.46875 
Q 12.59375 47.65625 12.5 36.921875 
Q 15.671875 41.75 20.265625 44.09375 
Q 24.859375 46.4375 29.890625 46.4375 
Q 38.671875 46.4375 44.84375 39.96875 
Q 51.03125 33.5 51.03125 23.25 
Q 51.03125 16.5 48.125 10.71875 
Q 45.21875 4.9375 40.140625 1.859375 
Q 35.0625 -1.21875 28.609375 -1.21875 
Q 17.625 -1.21875 10.6875 6.859375 
Q 3.765625 14.9375 3.765625 33.5 
Q 3.765625 54.25 11.421875 63.671875 
Q 18.109375 71.875 29.4375 71.875 
Q 37.890625 71.875 43.28125 67.140625 
Q 48.6875 62.40625 49.75 54.046875 
z
M 13.875 23.1875 
Q 13.875 18.65625 15.796875 14.5 
Q 17.71875 10.359375 21.1875 8.171875 
Q 24.65625 6 28.46875 6 
Q 34.03125 6 38.03125 10.484375 
Q 42.046875 14.984375 42.046875 22.703125 
Q 42.046875 30.125 38.078125 34.390625 
Q 34.125 38.671875 28.125 38.671875 
Q 22.171875 38.671875 18.015625 34.390625 
Q 13.875 30.125 13.875 23.1875 
z
" id="ArialMT-54"/>
       </defs>
       <use xlink:href="#ArialMT-54"/>
       <use x="55.615234" xlink:href="#ArialMT-48"/>
      </g>
     </g>
    </g>
    <g id="xtick_5">
     <g id="line2d_5">
      <path clip-path="url(#p6d1b2bd8a5)" d="M 511.866117 368.950625 
L 511.866117 41.580625 
" style="fill:none;stroke:#ffffff;stroke-linecap:round;"/>
     </g>
     <g id="text_5">
      <!-- 80 -->
      <g style="fill:#262626;" transform="translate(502.690571 390.261016)scale(0.165 -0.165)">
       <defs>
        <path d="M 17.671875 38.8125 
Q 12.203125 40.828125 9.5625 44.53125 
Q 6.9375 48.25 6.9375 53.421875 
Q 6.9375 61.234375 12.546875 66.546875 
Q 18.171875 71.875 27.484375 71.875 
Q 36.859375 71.875 42.578125 66.421875 
Q 48.296875 60.984375 48.296875 53.171875 
Q 48.296875 48.1875 45.671875 44.5 
Q 43.0625 40.828125 37.75 38.8125 
Q 44.34375 36.671875 47.78125 31.875 
Q 51.21875 27.09375 51.21875 20.453125 
Q 51.21875 11.28125 44.71875 5.03125 
Q 38.234375 -1.21875 27.640625 -1.21875 
Q 17.046875 -1.21875 10.546875 5.046875 
Q 4.046875 11.328125 4.046875 20.703125 
Q 4.046875 27.6875 7.59375 32.390625 
Q 11.140625 37.109375 17.671875 38.8125 
z
M 15.921875 53.71875 
Q 15.921875 48.640625 19.1875 45.40625 
Q 22.46875 42.1875 27.6875 42.1875 
Q 32.765625 42.1875 36.015625 45.375 
Q 39.265625 48.578125 39.265625 53.21875 
Q 39.265625 58.0625 35.90625 61.359375 
Q 32.5625 64.65625 27.59375 64.65625 
Q 22.5625 64.65625 19.234375 61.421875 
Q 15.921875 58.203125 15.921875 53.71875 
z
M 13.09375 20.65625 
Q 13.09375 16.890625 14.875 13.375 
Q 16.65625 9.859375 20.171875 7.921875 
Q 23.6875 6 27.734375 6 
Q 34.03125 6 38.125 10.046875 
Q 42.234375 14.109375 42.234375 20.359375 
Q 42.234375 26.703125 38.015625 30.859375 
Q 33.796875 35.015625 27.4375 35.015625 
Q 21.234375 35.015625 17.15625 30.90625 
Q 13.09375 26.8125 13.09375 20.65625 
z
" id="ArialMT-56"/>
       </defs>
       <use xlink:href="#ArialMT-56"/>
       <use x="55.615234" xlink:href="#ArialMT-48"/>
      </g>
     </g>
    </g>
    <g id="xtick_6">
     <g id="line2d_6">
      <path clip-path="url(#p6d1b2bd8a5)" d="M 615.242299 368.950625 
L 615.242299 41.580625 
" style="fill:none;stroke:#ffffff;stroke-linecap:round;"/>
     </g>
     <g id="text_6">
      <!-- 100 -->
      <g style="fill:#262626;" transform="translate(601.478979 390.261016)scale(0.165 -0.165)">
       <defs>
        <path d="M 37.25 0 
L 28.46875 0 
L 28.46875 56 
Q 25.296875 52.984375 20.140625 49.953125 
Q 14.984375 46.921875 10.890625 45.40625 
L 10.890625 53.90625 
Q 18.265625 57.375 23.78125 62.296875 
Q 29.296875 67.234375 31.59375 71.875 
L 37.25 71.875 
z
" id="ArialMT-49"/>
       </defs>
       <use xlink:href="#ArialMT-49"/>
       <use x="55.615234" xlink:href="#ArialMT-48"/>
       <use x="111.230469" xlink:href="#ArialMT-48"/>
      </g>
     </g>
    </g>
    <g id="text_7">
     <!-- Black or African American Population (%) -->
     <g style="fill:#262626;" transform="translate(191.285488 409.187891)scale(0.16 -0.16)">
      <defs>
       <path d="M 7.328125 71.578125 
L 35.9375 71.578125 
Q 44.4375 71.578125 48.609375 70.875 
Q 52.78125 70.171875 56.078125 67.921875 
Q 59.375 65.671875 61.5625 61.9375 
Q 63.765625 58.203125 63.765625 53.5625 
Q 63.765625 48.53125 61.046875 44.328125 
Q 58.34375 40.140625 53.71875 38.03125 
Q 60.25 36.140625 63.765625 31.546875 
Q 67.28125 26.953125 67.28125 20.75 
Q 67.28125 15.875 65.015625 11.25 
Q 62.75 6.640625 58.8125 3.875 
Q 54.890625 1.125 49.125 0.484375 
Q 45.515625 0.09375 31.6875 0 
L 7.328125 0 
z
M 21.78125 59.671875 
L 21.78125 43.109375 
L 31.25 43.109375 
Q 39.703125 43.109375 41.75 43.359375 
Q 45.453125 43.796875 47.578125 45.921875 
Q 49.703125 48.046875 49.703125 51.515625 
Q 49.703125 54.828125 47.875 56.90625 
Q 46.046875 58.984375 42.4375 59.421875 
Q 40.28125 59.671875 30.078125 59.671875 
z
M 21.78125 31.203125 
L 21.78125 12.0625 
L 35.15625 12.0625 
Q 42.96875 12.0625 45.0625 12.5 
Q 48.296875 13.09375 50.3125 15.359375 
Q 52.34375 17.625 52.34375 21.4375 
Q 52.34375 24.65625 50.78125 26.90625 
Q 49.21875 29.15625 46.265625 30.171875 
Q 43.3125 31.203125 33.453125 31.203125 
z
" id="Arial-BoldMT-66"/>
       <path d="M 7.171875 0 
L 7.171875 71.578125 
L 20.90625 71.578125 
L 20.90625 0 
z
" id="Arial-BoldMT-108"/>
       <path d="M 17.4375 36.03125 
L 4.984375 38.28125 
Q 7.078125 45.796875 12.203125 49.40625 
Q 17.328125 53.03125 27.4375 53.03125 
Q 36.625 53.03125 41.109375 50.859375 
Q 45.609375 48.6875 47.4375 45.34375 
Q 49.265625 42 49.265625 33.0625 
L 49.125 17.046875 
Q 49.125 10.203125 49.78125 6.953125 
Q 50.4375 3.71875 52.25 0 
L 38.671875 0 
Q 38.140625 1.375 37.359375 4.046875 
Q 37.015625 5.28125 36.859375 5.671875 
Q 33.34375 2.25 29.34375 0.53125 
Q 25.34375 -1.171875 20.796875 -1.171875 
Q 12.796875 -1.171875 8.171875 3.171875 
Q 3.5625 7.515625 3.5625 14.15625 
Q 3.5625 18.5625 5.65625 22 
Q 7.765625 25.4375 11.546875 27.265625 
Q 15.328125 29.109375 22.46875 30.46875 
Q 32.078125 32.28125 35.796875 33.84375 
L 35.796875 35.203125 
Q 35.796875 39.15625 33.84375 40.84375 
Q 31.890625 42.53125 26.46875 42.53125 
Q 22.796875 42.53125 20.75 41.09375 
Q 18.703125 39.65625 17.4375 36.03125 
z
M 35.796875 24.90625 
Q 33.15625 24.03125 27.4375 22.796875 
Q 21.734375 21.578125 19.96875 20.40625 
Q 17.28125 18.5 17.28125 15.578125 
Q 17.28125 12.703125 19.421875 10.59375 
Q 21.578125 8.5 24.90625 8.5 
Q 28.609375 8.5 31.984375 10.9375 
Q 34.46875 12.796875 35.25 15.484375 
Q 35.796875 17.234375 35.796875 22.171875 
z
" id="Arial-BoldMT-97"/>
       <path d="M 52.390625 36.53125 
L 38.875 34.078125 
Q 38.1875 38.140625 35.765625 40.1875 
Q 33.34375 42.234375 29.5 42.234375 
Q 24.359375 42.234375 21.3125 38.6875 
Q 18.265625 35.15625 18.265625 26.859375 
Q 18.265625 17.625 21.359375 13.8125 
Q 24.46875 10.015625 29.6875 10.015625 
Q 33.59375 10.015625 36.078125 12.234375 
Q 38.578125 14.453125 39.59375 19.875 
L 53.078125 17.578125 
Q 50.984375 8.296875 45.015625 3.5625 
Q 39.0625 -1.171875 29.046875 -1.171875 
Q 17.671875 -1.171875 10.90625 6 
Q 4.15625 13.1875 4.15625 25.875 
Q 4.15625 38.71875 10.9375 45.875 
Q 17.71875 53.03125 29.296875 53.03125 
Q 38.765625 53.03125 44.359375 48.953125 
Q 49.953125 44.875 52.390625 36.53125 
z
" id="Arial-BoldMT-99"/>
       <path d="M 6.6875 0 
L 6.6875 71.578125 
L 20.40625 71.578125 
L 20.40625 33.59375 
L 36.46875 51.859375 
L 53.375 51.859375 
L 35.640625 32.90625 
L 54.640625 0 
L 39.84375 0 
L 26.8125 23.296875 
L 20.40625 16.609375 
L 20.40625 0 
z
" id="Arial-BoldMT-107"/>
       <path id="Arial-BoldMT-32"/>
       <path d="M 4 26.65625 
Q 4 33.5 7.375 39.890625 
Q 10.75 46.296875 16.921875 49.65625 
Q 23.09375 53.03125 30.71875 53.03125 
Q 42.484375 53.03125 50 45.390625 
Q 57.515625 37.75 57.515625 26.078125 
Q 57.515625 14.3125 49.921875 6.5625 
Q 42.328125 -1.171875 30.8125 -1.171875 
Q 23.6875 -1.171875 17.21875 2.046875 
Q 10.75 5.28125 7.375 11.5 
Q 4 17.71875 4 26.65625 
z
M 18.0625 25.921875 
Q 18.0625 18.21875 21.71875 14.109375 
Q 25.390625 10.015625 30.765625 10.015625 
Q 36.140625 10.015625 39.765625 14.109375 
Q 43.40625 18.21875 43.40625 26.03125 
Q 43.40625 33.640625 39.765625 37.734375 
Q 36.140625 41.84375 30.765625 41.84375 
Q 25.390625 41.84375 21.71875 37.734375 
Q 18.0625 33.640625 18.0625 25.921875 
z
" id="Arial-BoldMT-111"/>
       <path d="M 20.3125 0 
L 6.59375 0 
L 6.59375 51.859375 
L 19.34375 51.859375 
L 19.34375 44.484375 
Q 22.609375 49.703125 25.21875 51.359375 
Q 27.828125 53.03125 31.15625 53.03125 
Q 35.84375 53.03125 40.1875 50.4375 
L 35.9375 38.484375 
Q 32.46875 40.71875 29.5 40.71875 
Q 26.609375 40.71875 24.609375 39.125 
Q 22.609375 37.546875 21.453125 33.390625 
Q 20.3125 29.25 20.3125 16.015625 
z
" id="Arial-BoldMT-114"/>
       <path d="M 71.828125 0 
L 56.109375 0 
L 49.859375 16.265625 
L 21.234375 16.265625 
L 15.328125 0 
L 0 0 
L 27.875 71.578125 
L 43.171875 71.578125 
z
M 45.21875 28.328125 
L 35.359375 54.890625 
L 25.6875 28.328125 
z
" id="Arial-BoldMT-65"/>
       <path d="M 1.171875 51.859375 
L 8.796875 51.859375 
L 8.796875 55.765625 
Q 8.796875 62.3125 10.1875 65.53125 
Q 11.578125 68.75 15.3125 70.765625 
Q 19.046875 72.796875 24.75 72.796875 
Q 30.609375 72.796875 36.234375 71.046875 
L 34.375 61.46875 
Q 31.109375 62.25 28.078125 62.25 
Q 25.09375 62.25 23.796875 60.859375 
Q 22.515625 59.46875 22.515625 55.515625 
L 22.515625 51.859375 
L 32.765625 51.859375 
L 32.765625 41.0625 
L 22.515625 41.0625 
L 22.515625 0 
L 8.796875 0 
L 8.796875 41.0625 
L 1.171875 41.0625 
z
" id="Arial-BoldMT-102"/>
       <path d="M 7.171875 58.890625 
L 7.171875 71.578125 
L 20.90625 71.578125 
L 20.90625 58.890625 
z
M 7.171875 0 
L 7.171875 51.859375 
L 20.90625 51.859375 
L 20.90625 0 
z
" id="Arial-BoldMT-105"/>
       <path d="M 54.34375 0 
L 40.625 0 
L 40.625 26.46875 
Q 40.625 34.859375 39.75 37.328125 
Q 38.875 39.796875 36.890625 41.15625 
Q 34.90625 42.53125 32.125 42.53125 
Q 28.5625 42.53125 25.734375 40.578125 
Q 22.90625 38.625 21.84375 35.390625 
Q 20.796875 32.171875 20.796875 23.484375 
L 20.796875 0 
L 7.078125 0 
L 7.078125 51.859375 
L 19.828125 51.859375 
L 19.828125 44.234375 
Q 26.609375 53.03125 36.921875 53.03125 
Q 41.453125 53.03125 45.203125 51.390625 
Q 48.96875 49.75 50.890625 47.203125 
Q 52.828125 44.671875 53.578125 41.453125 
Q 54.34375 38.234375 54.34375 32.234375 
z
" id="Arial-BoldMT-110"/>
       <path d="M 6.15625 51.859375 
L 18.796875 51.859375 
L 18.796875 44.78125 
Q 25.59375 53.03125 34.96875 53.03125 
Q 39.9375 53.03125 43.59375 50.96875 
Q 47.265625 48.921875 49.609375 44.78125 
Q 53.03125 48.921875 56.984375 50.96875 
Q 60.9375 53.03125 65.4375 53.03125 
Q 71.140625 53.03125 75.09375 50.703125 
Q 79.046875 48.390625 81 43.890625 
Q 82.421875 40.578125 82.421875 33.15625 
L 82.421875 0 
L 68.703125 0 
L 68.703125 29.640625 
Q 68.703125 37.359375 67.28125 39.59375 
Q 65.375 42.53125 61.421875 42.53125 
Q 58.546875 42.53125 56 40.765625 
Q 53.46875 39.015625 52.34375 35.625 
Q 51.21875 32.234375 51.21875 24.90625 
L 51.21875 0 
L 37.5 0 
L 37.5 28.421875 
Q 37.5 35.984375 36.765625 38.171875 
Q 36.03125 40.375 34.484375 41.453125 
Q 32.953125 42.53125 30.328125 42.53125 
Q 27.15625 42.53125 24.609375 40.8125 
Q 22.078125 39.109375 20.96875 35.890625 
Q 19.875 32.671875 19.875 25.203125 
L 19.875 0 
L 6.15625 0 
z
" id="Arial-BoldMT-109"/>
       <path d="M 37.203125 16.5 
L 50.875 14.203125 
Q 48.25 6.6875 42.546875 2.75 
Q 36.859375 -1.171875 28.328125 -1.171875 
Q 14.796875 -1.171875 8.296875 7.671875 
Q 3.171875 14.75 3.171875 25.53125 
Q 3.171875 38.421875 9.90625 45.71875 
Q 16.65625 53.03125 26.953125 53.03125 
Q 38.53125 53.03125 45.21875 45.390625 
Q 51.90625 37.75 51.609375 21.96875 
L 17.234375 21.96875 
Q 17.390625 15.875 20.5625 12.46875 
Q 23.734375 9.078125 28.46875 9.078125 
Q 31.6875 9.078125 33.875 10.828125 
Q 36.078125 12.59375 37.203125 16.5 
z
M 37.984375 30.375 
Q 37.84375 36.328125 34.90625 39.421875 
Q 31.984375 42.53125 27.78125 42.53125 
Q 23.296875 42.53125 20.359375 39.265625 
Q 17.4375 35.984375 17.484375 30.375 
z
" id="Arial-BoldMT-101"/>
       <path d="M 7.28125 0 
L 7.28125 71.578125 
L 30.46875 71.578125 
Q 43.65625 71.578125 47.65625 70.515625 
Q 53.8125 68.890625 57.953125 63.5 
Q 62.109375 58.109375 62.109375 49.5625 
Q 62.109375 42.96875 59.71875 38.46875 
Q 57.328125 33.984375 53.640625 31.421875 
Q 49.953125 28.859375 46.140625 28.03125 
Q 40.96875 27 31.15625 27 
L 21.734375 27 
L 21.734375 0 
z
M 21.734375 59.46875 
L 21.734375 39.15625 
L 29.640625 39.15625 
Q 38.1875 39.15625 41.0625 40.28125 
Q 43.953125 41.40625 45.578125 43.796875 
Q 47.21875 46.1875 47.21875 49.359375 
Q 47.21875 53.265625 44.921875 55.796875 
Q 42.625 58.34375 39.109375 58.984375 
Q 36.53125 59.46875 28.71875 59.46875 
z
" id="Arial-BoldMT-80"/>
       <path d="M 6.78125 51.859375 
L 19.578125 51.859375 
L 19.578125 44.234375 
Q 22.078125 48.140625 26.3125 50.578125 
Q 30.5625 53.03125 35.75 53.03125 
Q 44.78125 53.03125 51.078125 45.953125 
Q 57.375 38.875 57.375 26.21875 
Q 57.375 13.234375 51.015625 6.03125 
Q 44.671875 -1.171875 35.640625 -1.171875 
Q 31.34375 -1.171875 27.84375 0.53125 
Q 24.359375 2.25 20.515625 6.390625 
L 20.515625 -19.734375 
L 6.78125 -19.734375 
z
M 20.359375 26.8125 
Q 20.359375 18.0625 23.828125 13.890625 
Q 27.296875 9.71875 32.28125 9.71875 
Q 37.0625 9.71875 40.234375 13.546875 
Q 43.40625 17.390625 43.40625 26.125 
Q 43.40625 34.28125 40.125 38.234375 
Q 36.859375 42.1875 32.03125 42.1875 
Q 27 42.1875 23.671875 38.296875 
Q 20.359375 34.421875 20.359375 26.8125 
z
" id="Arial-BoldMT-112"/>
       <path d="M 41.3125 0 
L 41.3125 7.765625 
Q 38.484375 3.609375 33.859375 1.21875 
Q 29.25 -1.171875 24.125 -1.171875 
Q 18.890625 -1.171875 14.734375 1.125 
Q 10.59375 3.421875 8.734375 7.5625 
Q 6.890625 11.71875 6.890625 19.046875 
L 6.890625 51.859375 
L 20.609375 51.859375 
L 20.609375 28.03125 
Q 20.609375 17.09375 21.359375 14.625 
Q 22.125 12.15625 24.125 10.71875 
Q 26.125 9.28125 29.203125 9.28125 
Q 32.71875 9.28125 35.5 11.203125 
Q 38.28125 13.140625 39.296875 15.984375 
Q 40.328125 18.84375 40.328125 29.984375 
L 40.328125 51.859375 
L 54.046875 51.859375 
L 54.046875 0 
z
" id="Arial-BoldMT-117"/>
       <path d="M 30.953125 51.859375 
L 30.953125 40.921875 
L 21.578125 40.921875 
L 21.578125 20.015625 
Q 21.578125 13.671875 21.84375 12.625 
Q 22.125 11.578125 23.078125 10.890625 
Q 24.03125 10.203125 25.390625 10.203125 
Q 27.296875 10.203125 30.90625 11.53125 
L 32.078125 0.875 
Q 27.296875 -1.171875 21.234375 -1.171875 
Q 17.53125 -1.171875 14.546875 0.0625 
Q 11.578125 1.3125 10.1875 3.296875 
Q 8.796875 5.28125 8.25 8.640625 
Q 7.8125 11.03125 7.8125 18.3125 
L 7.8125 40.921875 
L 1.515625 40.921875 
L 1.515625 51.859375 
L 7.8125 51.859375 
L 7.8125 62.15625 
L 21.578125 70.171875 
L 21.578125 51.859375 
z
" id="Arial-BoldMT-116"/>
       <path d="M 29.9375 -21.046875 
L 20.515625 -21.046875 
Q 13.03125 -9.765625 9.125 2.390625 
Q 5.21875 14.546875 5.21875 25.921875 
Q 5.21875 40.046875 10.0625 52.640625 
Q 14.265625 63.578125 20.703125 72.796875 
L 30.078125 72.796875 
Q 23.390625 58.015625 20.875 47.625 
Q 18.359375 37.25 18.359375 25.640625 
Q 18.359375 17.625 19.84375 9.21875 
Q 21.34375 0.828125 23.921875 -6.734375 
Q 25.640625 -11.71875 29.9375 -21.046875 
z
" id="Arial-BoldMT-40"/>
       <path d="M 4.34375 53.90625 
Q 4.34375 63.53125 8.5625 68.15625 
Q 12.796875 72.796875 20.015625 72.796875 
Q 27.484375 72.796875 31.703125 68.1875 
Q 35.9375 63.578125 35.9375 53.90625 
Q 35.9375 44.28125 31.703125 39.640625 
Q 27.484375 35.015625 20.265625 35.015625 
Q 12.796875 35.015625 8.5625 39.625 
Q 4.34375 44.234375 4.34375 53.90625 
z
M 15.046875 54 
Q 15.046875 47.015625 16.65625 44.625 
Q 17.875 42.875 20.015625 42.875 
Q 22.21875 42.875 23.4375 44.625 
Q 25 47.015625 25 54 
Q 25 60.984375 23.4375 63.328125 
Q 22.21875 65.140625 20.015625 65.140625 
Q 17.875 65.140625 16.65625 63.375 
Q 15.046875 60.984375 15.046875 54 
z
M 30.46875 -2.734375 
L 20.3125 -2.734375 
L 58.453125 72.796875 
L 68.3125 72.796875 
z
M 52.640625 16.0625 
Q 52.640625 25.6875 56.859375 30.328125 
Q 61.078125 34.96875 68.40625 34.96875 
Q 75.78125 34.96875 80 30.328125 
Q 84.234375 25.6875 84.234375 16.0625 
Q 84.234375 6.390625 80 1.75 
Q 75.78125 -2.875 68.5625 -2.875 
Q 61.078125 -2.875 56.859375 1.75 
Q 52.640625 6.390625 52.640625 16.0625 
z
M 63.328125 16.109375 
Q 63.328125 9.125 64.9375 6.78125 
Q 66.15625 4.984375 68.3125 4.984375 
Q 70.515625 4.984375 71.6875 6.734375 
Q 73.296875 9.125 73.296875 16.109375 
Q 73.296875 23.09375 71.734375 25.484375 
Q 70.515625 27.25 68.3125 27.25 
Q 66.109375 27.25 64.9375 25.484375 
Q 63.328125 23.09375 63.328125 16.109375 
z
" id="Arial-BoldMT-37"/>
       <path d="M 3.375 -21.046875 
Q 7.421875 -12.359375 9.078125 -7.71875 
Q 10.75 -3.078125 12.15625 2.96875 
Q 13.578125 9.03125 14.25 14.46875 
Q 14.9375 19.921875 14.9375 25.640625 
Q 14.9375 37.25 12.453125 47.625 
Q 9.96875 58.015625 3.265625 72.796875 
L 12.59375 72.796875 
Q 19.96875 62.3125 24.046875 50.53125 
Q 28.125 38.765625 28.125 26.65625 
Q 28.125 16.453125 24.90625 4.78125 
Q 21.234375 -8.296875 12.84375 -21.046875 
z
" id="Arial-BoldMT-41"/>
      </defs>
      <use xlink:href="#Arial-BoldMT-66"/>
      <use x="72.216797" xlink:href="#Arial-BoldMT-108"/>
      <use x="100" xlink:href="#Arial-BoldMT-97"/>
      <use x="155.615234" xlink:href="#Arial-BoldMT-99"/>
      <use x="211.230469" xlink:href="#Arial-BoldMT-107"/>
      <use x="266.845703" xlink:href="#Arial-BoldMT-32"/>
      <use x="294.628906" xlink:href="#Arial-BoldMT-111"/>
      <use x="355.712891" xlink:href="#Arial-BoldMT-114"/>
      <use x="394.628906" xlink:href="#Arial-BoldMT-32"/>
      <use x="418.662109" xlink:href="#Arial-BoldMT-65"/>
      <use x="490.878906" xlink:href="#Arial-BoldMT-102"/>
      <use x="524.179688" xlink:href="#Arial-BoldMT-114"/>
      <use x="563.095703" xlink:href="#Arial-BoldMT-105"/>
      <use x="590.878906" xlink:href="#Arial-BoldMT-99"/>
      <use x="646.494141" xlink:href="#Arial-BoldMT-97"/>
      <use x="702.109375" xlink:href="#Arial-BoldMT-110"/>
      <use x="763.193359" xlink:href="#Arial-BoldMT-32"/>
      <use x="787.226562" xlink:href="#Arial-BoldMT-65"/>
      <use x="859.443359" xlink:href="#Arial-BoldMT-109"/>
      <use x="948.359375" xlink:href="#Arial-BoldMT-101"/>
      <use x="1003.974609" xlink:href="#Arial-BoldMT-114"/>
      <use x="1042.890625" xlink:href="#Arial-BoldMT-105"/>
      <use x="1070.673828" xlink:href="#Arial-BoldMT-99"/>
      <use x="1126.289062" xlink:href="#Arial-BoldMT-97"/>
      <use x="1181.904297" xlink:href="#Arial-BoldMT-110"/>
      <use x="1242.988281" xlink:href="#Arial-BoldMT-32"/>
      <use x="1270.771484" xlink:href="#Arial-BoldMT-80"/>
      <use x="1337.470703" xlink:href="#Arial-BoldMT-111"/>
      <use x="1398.554688" xlink:href="#Arial-BoldMT-112"/>
      <use x="1459.638672" xlink:href="#Arial-BoldMT-117"/>
      <use x="1520.722656" xlink:href="#Arial-BoldMT-108"/>
      <use x="1548.505859" xlink:href="#Arial-BoldMT-97"/>
      <use x="1604.121094" xlink:href="#Arial-BoldMT-116"/>
      <use x="1637.421875" xlink:href="#Arial-BoldMT-105"/>
      <use x="1665.205078" xlink:href="#Arial-BoldMT-111"/>
      <use x="1726.289062" xlink:href="#Arial-BoldMT-110"/>
      <use x="1787.373047" xlink:href="#Arial-BoldMT-32"/>
      <use x="1815.15625" xlink:href="#Arial-BoldMT-40"/>
      <use x="1848.457031" xlink:href="#Arial-BoldMT-37"/>
      <use x="1937.373047" xlink:href="#Arial-BoldMT-41"/>
     </g>
    </g>
   </g>
   <g id="matplotlib.axis_2">
    <g id="ytick_1">
     <g id="line2d_7">
      <path clip-path="url(#p6d1b2bd8a5)" d="M 75.424375 368.950625 
L 622.439101 368.950625 
" style="fill:none;stroke:#ffffff;stroke-linecap:round;"/>
     </g>
     <g id="text_8">
      <!-- 50 -->
      <g style="fill:#262626;" transform="translate(47.573281 374.85582)scale(0.165 -0.165)">
       <defs>
        <path d="M 4.15625 18.75 
L 13.375 19.53125 
Q 14.40625 12.796875 18.140625 9.390625 
Q 21.875 6 27.15625 6 
Q 33.5 6 37.890625 10.78125 
Q 42.28125 15.578125 42.28125 23.484375 
Q 42.28125 31 38.0625 35.34375 
Q 33.84375 39.703125 27 39.703125 
Q 22.75 39.703125 19.328125 37.765625 
Q 15.921875 35.84375 13.96875 32.765625 
L 5.71875 33.84375 
L 12.640625 70.609375 
L 48.25 70.609375 
L 48.25 62.203125 
L 19.671875 62.203125 
L 15.828125 42.96875 
Q 22.265625 47.46875 29.34375 47.46875 
Q 38.71875 47.46875 45.15625 40.96875 
Q 51.609375 34.46875 51.609375 24.265625 
Q 51.609375 14.546875 45.953125 7.46875 
Q 39.0625 -1.21875 27.15625 -1.21875 
Q 17.390625 -1.21875 11.203125 4.25 
Q 5.03125 9.71875 4.15625 18.75 
z
" id="ArialMT-53"/>
       </defs>
       <use xlink:href="#ArialMT-53"/>
       <use x="55.615234" xlink:href="#ArialMT-48"/>
      </g>
     </g>
    </g>
    <g id="ytick_2">
     <g id="line2d_8">
      <path clip-path="url(#p6d1b2bd8a5)" d="M 75.424375 309.428807 
L 622.439101 309.428807 
" style="fill:none;stroke:#ffffff;stroke-linecap:round;"/>
     </g>
     <g id="text_9">
      <!-- 60 -->
      <g style="fill:#262626;" transform="translate(47.573281 315.334002)scale(0.165 -0.165)">
       <use xlink:href="#ArialMT-54"/>
       <use x="55.615234" xlink:href="#ArialMT-48"/>
      </g>
     </g>
    </g>
    <g id="ytick_3">
     <g id="line2d_9">
      <path clip-path="url(#p6d1b2bd8a5)" d="M 75.424375 249.906989 
L 622.439101 249.906989 
" style="fill:none;stroke:#ffffff;stroke-linecap:round;"/>
     </g>
     <g id="text_10">
      <!-- 70 -->
      <g style="fill:#262626;" transform="translate(47.573281 255.812184)scale(0.165 -0.165)">
       <defs>
        <path d="M 4.734375 62.203125 
L 4.734375 70.65625 
L 51.078125 70.65625 
L 51.078125 63.8125 
Q 44.234375 56.546875 37.515625 44.484375 
Q 30.8125 32.421875 27.15625 19.671875 
Q 24.515625 10.6875 23.78125 0 
L 14.75 0 
Q 14.890625 8.453125 18.0625 20.40625 
Q 21.234375 32.375 27.171875 43.484375 
Q 33.109375 54.59375 39.796875 62.203125 
z
" id="ArialMT-55"/>
       </defs>
       <use xlink:href="#ArialMT-55"/>
       <use x="55.615234" xlink:href="#ArialMT-48"/>
      </g>
     </g>
    </g>
    <g id="ytick_4">
     <g id="line2d_10">
      <path clip-path="url(#p6d1b2bd8a5)" d="M 75.424375 190.38517 
L 622.439101 190.38517 
" style="fill:none;stroke:#ffffff;stroke-linecap:round;"/>
     </g>
     <g id="text_11">
      <!-- 80 -->
      <g style="fill:#262626;" transform="translate(47.573281 196.290366)scale(0.165 -0.165)">
       <use xlink:href="#ArialMT-56"/>
       <use x="55.615234" xlink:href="#ArialMT-48"/>
      </g>
     </g>
    </g>
    <g id="ytick_5">
     <g id="line2d_11">
      <path clip-path="url(#p6d1b2bd8a5)" d="M 75.424375 130.863352 
L 622.439101 130.863352 
" style="fill:none;stroke:#ffffff;stroke-linecap:round;"/>
     </g>
     <g id="text_12">
      <!-- 90 -->
      <g style="fill:#262626;" transform="translate(47.573281 136.768548)scale(0.165 -0.165)">
       <defs>
        <path d="M 5.46875 16.546875 
L 13.921875 17.328125 
Q 14.984375 11.375 18.015625 8.6875 
Q 21.046875 6 25.78125 6 
Q 29.828125 6 32.875 7.859375 
Q 35.9375 9.71875 37.890625 12.8125 
Q 39.84375 15.921875 41.15625 21.1875 
Q 42.484375 26.46875 42.484375 31.9375 
Q 42.484375 32.515625 42.4375 33.6875 
Q 39.796875 29.5 35.234375 26.875 
Q 30.671875 24.265625 25.34375 24.265625 
Q 16.453125 24.265625 10.296875 30.703125 
Q 4.15625 37.15625 4.15625 47.703125 
Q 4.15625 58.59375 10.578125 65.234375 
Q 17 71.875 26.65625 71.875 
Q 33.640625 71.875 39.421875 68.109375 
Q 45.21875 64.359375 48.21875 57.390625 
Q 51.21875 50.4375 51.21875 37.25 
Q 51.21875 23.53125 48.234375 15.40625 
Q 45.265625 7.28125 39.375 3.03125 
Q 33.5 -1.21875 25.59375 -1.21875 
Q 17.1875 -1.21875 11.859375 3.4375 
Q 6.546875 8.109375 5.46875 16.546875 
z
M 41.453125 48.140625 
Q 41.453125 55.71875 37.421875 60.15625 
Q 33.40625 64.59375 27.734375 64.59375 
Q 21.875 64.59375 17.53125 59.8125 
Q 13.1875 55.03125 13.1875 47.40625 
Q 13.1875 40.578125 17.3125 36.296875 
Q 21.4375 32.03125 27.484375 32.03125 
Q 33.59375 32.03125 37.515625 36.296875 
Q 41.453125 40.578125 41.453125 48.140625 
z
" id="ArialMT-57"/>
       </defs>
       <use xlink:href="#ArialMT-57"/>
       <use x="55.615234" xlink:href="#ArialMT-48"/>
      </g>
     </g>
    </g>
    <g id="ytick_6">
     <g id="line2d_12">
      <path clip-path="url(#p6d1b2bd8a5)" d="M 75.424375 71.341534 
L 622.439101 71.341534 
" style="fill:none;stroke:#ffffff;stroke-linecap:round;"/>
     </g>
     <g id="text_13">
      <!-- 100 -->
      <g style="fill:#262626;" transform="translate(38.397734 77.246729)scale(0.165 -0.165)">
       <use xlink:href="#ArialMT-49"/>
       <use x="55.615234" xlink:href="#ArialMT-48"/>
       <use x="111.230469" xlink:href="#ArialMT-48"/>
      </g>
     </g>
    </g>
    <g id="text_14">
     <!-- Households with Internet (%) -->
     <g style="fill:#262626;" transform="translate(31.030234 315.480625)rotate(-90)scale(0.16 -0.16)">
      <defs>
       <path d="M 7.328125 0 
L 7.328125 71.578125 
L 21.78125 71.578125 
L 21.78125 43.40625 
L 50.09375 43.40625 
L 50.09375 71.578125 
L 64.546875 71.578125 
L 64.546875 0 
L 50.09375 0 
L 50.09375 31.296875 
L 21.78125 31.296875 
L 21.78125 0 
z
" id="Arial-BoldMT-72"/>
       <path d="M 2.34375 14.796875 
L 16.109375 16.890625 
Q 17 12.890625 19.671875 10.8125 
Q 22.359375 8.734375 27.203125 8.734375 
Q 32.515625 8.734375 35.203125 10.6875 
Q 37.015625 12.0625 37.015625 14.359375 
Q 37.015625 15.921875 36.03125 16.9375 
Q 35.015625 17.921875 31.453125 18.75 
Q 14.84375 22.40625 10.40625 25.4375 
Q 4.25 29.640625 4.25 37.109375 
Q 4.25 43.84375 9.5625 48.4375 
Q 14.890625 53.03125 26.078125 53.03125 
Q 36.71875 53.03125 41.890625 49.5625 
Q 47.078125 46.09375 49.03125 39.3125 
L 36.078125 36.921875 
Q 35.25 39.9375 32.921875 41.546875 
Q 30.609375 43.171875 26.3125 43.171875 
Q 20.90625 43.171875 18.5625 41.65625 
Q 17 40.578125 17 38.875 
Q 17 37.40625 18.359375 36.375 
Q 20.21875 35.015625 31.171875 32.515625 
Q 42.140625 30.03125 46.484375 26.421875 
Q 50.78125 22.75 50.78125 16.21875 
Q 50.78125 9.078125 44.828125 3.953125 
Q 38.875 -1.171875 27.203125 -1.171875 
Q 16.609375 -1.171875 10.421875 3.125 
Q 4.25 7.421875 2.34375 14.796875 
z
" id="Arial-BoldMT-115"/>
       <path d="M 20.84375 71.578125 
L 20.84375 45.265625 
Q 27.484375 53.03125 36.71875 53.03125 
Q 41.453125 53.03125 45.265625 51.265625 
Q 49.078125 49.515625 51 46.78125 
Q 52.9375 44.046875 53.640625 40.71875 
Q 54.34375 37.40625 54.34375 30.421875 
L 54.34375 0 
L 40.625 0 
L 40.625 27.390625 
Q 40.625 35.546875 39.84375 37.734375 
Q 39.0625 39.9375 37.078125 41.234375 
Q 35.109375 42.53125 32.125 42.53125 
Q 28.71875 42.53125 26.03125 40.859375 
Q 23.34375 39.203125 22.09375 35.859375 
Q 20.84375 32.515625 20.84375 25.984375 
L 20.84375 0 
L 7.125 0 
L 7.125 71.578125 
z
" id="Arial-BoldMT-104"/>
       <path d="M 54.734375 0 
L 42 0 
L 42 7.625 
Q 38.8125 3.171875 34.484375 1 
Q 30.171875 -1.171875 25.78125 -1.171875 
Q 16.84375 -1.171875 10.46875 6.03125 
Q 4.109375 13.234375 4.109375 26.125 
Q 4.109375 39.3125 10.296875 46.171875 
Q 16.5 53.03125 25.984375 53.03125 
Q 34.671875 53.03125 41.015625 45.796875 
L 41.015625 71.578125 
L 54.734375 71.578125 
z
M 18.109375 27.046875 
Q 18.109375 18.75 20.40625 15.046875 
Q 23.734375 9.671875 29.6875 9.671875 
Q 34.421875 9.671875 37.734375 13.6875 
Q 41.0625 17.71875 41.0625 25.734375 
Q 41.0625 34.671875 37.84375 38.59375 
Q 34.625 42.53125 29.59375 42.53125 
Q 24.703125 42.53125 21.40625 38.640625 
Q 18.109375 34.765625 18.109375 27.046875 
z
" id="Arial-BoldMT-100"/>
       <path d="M 16.84375 0 
L 0.4375 51.859375 
L 13.765625 51.859375 
L 23.484375 17.875 
L 32.421875 51.859375 
L 45.65625 51.859375 
L 54.296875 17.875 
L 64.203125 51.859375 
L 77.734375 51.859375 
L 61.078125 0 
L 47.90625 0 
L 38.96875 33.34375 
L 30.171875 0 
z
" id="Arial-BoldMT-119"/>
       <path d="M 6.84375 0 
L 6.84375 71.578125 
L 21.296875 71.578125 
L 21.296875 0 
z
" id="Arial-BoldMT-73"/>
      </defs>
      <use xlink:href="#Arial-BoldMT-72"/>
      <use x="72.216797" xlink:href="#Arial-BoldMT-111"/>
      <use x="133.300781" xlink:href="#Arial-BoldMT-117"/>
      <use x="194.384766" xlink:href="#Arial-BoldMT-115"/>
      <use x="250" xlink:href="#Arial-BoldMT-101"/>
      <use x="305.615234" xlink:href="#Arial-BoldMT-104"/>
      <use x="366.699219" xlink:href="#Arial-BoldMT-111"/>
      <use x="427.783203" xlink:href="#Arial-BoldMT-108"/>
      <use x="455.566406" xlink:href="#Arial-BoldMT-100"/>
      <use x="516.650391" xlink:href="#Arial-BoldMT-115"/>
      <use x="572.265625" xlink:href="#Arial-BoldMT-32"/>
      <use x="600.048828" xlink:href="#Arial-BoldMT-119"/>
      <use x="677.832031" xlink:href="#Arial-BoldMT-105"/>
      <use x="705.615234" xlink:href="#Arial-BoldMT-116"/>
      <use x="738.916016" xlink:href="#Arial-BoldMT-104"/>
      <use x="800" xlink:href="#Arial-BoldMT-32"/>
      <use x="827.783203" xlink:href="#Arial-BoldMT-73"/>
      <use x="855.566406" xlink:href="#Arial-BoldMT-110"/>
      <use x="916.650391" xlink:href="#Arial-BoldMT-116"/>
      <use x="949.951172" xlink:href="#Arial-BoldMT-101"/>
      <use x="1005.566406" xlink:href="#Arial-BoldMT-114"/>
      <use x="1044.482422" xlink:href="#Arial-BoldMT-110"/>
      <use x="1105.566406" xlink:href="#Arial-BoldMT-101"/>
      <use x="1161.181641" xlink:href="#Arial-BoldMT-116"/>
      <use x="1194.482422" xlink:href="#Arial-BoldMT-32"/>
      <use x="1222.265625" xlink:href="#Arial-BoldMT-40"/>
      <use x="1255.566406" xlink:href="#Arial-BoldMT-37"/>
      <use x="1344.482422" xlink:href="#Arial-BoldMT-41"/>
     </g>
    </g>
   </g>
   <g id="PathCollection_1">
    <defs>
     <path d="M 0 3 
C 0.795609 3 1.55874 2.683901 2.12132 2.12132 
C 2.683901 1.55874 3 0.795609 3 0 
C 3 -0.795609 2.683901 -1.55874 2.12132 -2.12132 
C 1.55874 -2.683901 0.795609 -3 0 -3 
C -0.795609 -3 -1.55874 -2.683901 -2.12132 -2.12132 
C -2.683901 -1.55874 -3 -0.795609 -3 0 
C -3 0.795609 -2.683901 1.55874 -2.12132 2.12132 
C -1.55874 2.683901 -0.795609 3 0 3 
z
" id="mb7620ed095" style="stroke:#ffffff;stroke-width:0.48;"/>
    </defs>
    <g clip-path="url(#p6d1b2bd8a5)">
     <use style="stroke:#ffffff;stroke-width:0.48;" x="123.901364" xlink:href="#mb7620ed095" y="165.469715"/>
     <use style="stroke:#ffffff;stroke-width:0.48;" x="103.294466" xlink:href="#mb7620ed095" y="188.592985"/>
     <use style="stroke:#ffffff;stroke-width:0.48;" x="141.695696" xlink:href="#mb7620ed095" y="235.478794"/>
     <use style="stroke:#ffffff;stroke-width:0.48;" x="335.46185" xlink:href="#mb7620ed095" y="154.791813"/>
     <use style="stroke:#ffffff;stroke-width:0.48;" x="591.39613" xlink:href="#mb7620ed095" y="254.544287"/>
     <use style="stroke:#ffffff;stroke-width:0.48;" x="500.309409" xlink:href="#mb7620ed095" y="250.016337"/>
     <use style="stroke:#ffffff;stroke-width:0.48;" x="597.574796" xlink:href="#mb7620ed095" y="224.342464"/>
     <use style="stroke:#ffffff;stroke-width:0.48;" x="109.141608" xlink:href="#mb7620ed095" y="161.896393"/>
     <use style="stroke:#ffffff;stroke-width:0.48;" x="110.632224" xlink:href="#mb7620ed095" y="202.455843"/>
     <use style="stroke:#ffffff;stroke-width:0.48;" x="275.27773" xlink:href="#mb7620ed095" y="117.727338"/>
     <use style="stroke:#ffffff;stroke-width:0.48;" x="113.909719" xlink:href="#mb7620ed095" y="148.38917"/>
     <use style="stroke:#ffffff;stroke-width:0.48;" x="104.553754" xlink:href="#mb7620ed095" y="195.816459"/>
     <use style="stroke:#ffffff;stroke-width:0.48;" x="595.91724" xlink:href="#mb7620ed095" y="322.700564"/>
     <use style="stroke:#ffffff;stroke-width:0.48;" x="584.628752" xlink:href="#mb7620ed095" y="179.776657"/>
     <use style="stroke:#ffffff;stroke-width:0.48;" x="592.842513" xlink:href="#mb7620ed095" y="248.233513"/>
     <use style="stroke:#ffffff;stroke-width:0.48;" x="321.582841" xlink:href="#mb7620ed095" y="212.364024"/>
     <use style="stroke:#ffffff;stroke-width:0.48;" x="110.095514" xlink:href="#mb7620ed095" y="169.882238"/>
     <use style="stroke:#ffffff;stroke-width:0.48;" x="442.383845" xlink:href="#mb7620ed095" y="179.574102"/>
     <use style="stroke:#ffffff;stroke-width:0.48;" x="106.951286" xlink:href="#mb7620ed095" y="186.069877"/>
     <use style="stroke:#ffffff;stroke-width:0.48;" x="555.012301" xlink:href="#mb7620ed095" y="259.614109"/>
     <use style="stroke:#ffffff;stroke-width:0.48;" x="117.251739" xlink:href="#mb7620ed095" y="173.388688"/>
     <use style="stroke:#ffffff;stroke-width:0.48;" x="161.984123" xlink:href="#mb7620ed095" y="141.588462"/>
     <use style="stroke:#ffffff;stroke-width:0.48;" x="100.288681" xlink:href="#mb7620ed095" y="154.84061"/>
     <use style="stroke:#ffffff;stroke-width:0.48;" x="587.527687" xlink:href="#mb7620ed095" y="277.279206"/>
     <use style="stroke:#ffffff;stroke-width:0.48;" x="104.521083" xlink:href="#mb7620ed095" y="123.682482"/>
     <use style="stroke:#ffffff;stroke-width:0.48;" x="577.529958" xlink:href="#mb7620ed095" y="277.66273"/>
     <use style="stroke:#ffffff;stroke-width:0.48;" x="119.007389" xlink:href="#mb7620ed095" y="187.986855"/>
     <use style="stroke:#ffffff;stroke-width:0.48;" x="125.506425" xlink:href="#mb7620ed095" y="171.84297"/>
     <use style="stroke:#ffffff;stroke-width:0.48;" x="567.647162" xlink:href="#mb7620ed095" y="209.328481"/>
     <use style="stroke:#ffffff;stroke-width:0.48;" x="592.783379" xlink:href="#mb7620ed095" y="259.707928"/>
     <use style="stroke:#ffffff;stroke-width:0.48;" x="120.255895" xlink:href="#mb7620ed095" y="179.930913"/>
     <use style="stroke:#ffffff;stroke-width:0.48;" x="118.392975" xlink:href="#mb7620ed095" y="186.836626"/>
     <use style="stroke:#ffffff;stroke-width:0.48;" x="263.581415" xlink:href="#mb7620ed095" y="216.697361"/>
     <use style="stroke:#ffffff;stroke-width:0.48;" x="235.05779" xlink:href="#mb7620ed095" y="125.631453"/>
     <use style="stroke:#ffffff;stroke-width:0.48;" x="115.259234" xlink:href="#mb7620ed095" y="157.811876"/>
     <use style="stroke:#ffffff;stroke-width:0.48;" x="103.867921" xlink:href="#mb7620ed095" y="141.178327"/>
     <use style="stroke:#ffffff;stroke-width:0.48;" x="446.940762" xlink:href="#mb7620ed095" y="168.419748"/>
     <use style="stroke:#ffffff;stroke-width:0.48;" x="118.982575" xlink:href="#mb7620ed095" y="105.454169"/>
     <use style="stroke:#ffffff;stroke-width:0.48;" x="123.764564" xlink:href="#mb7620ed095" y="108.566786"/>
     <use style="stroke:#ffffff;stroke-width:0.48;" x="116.407965" xlink:href="#mb7620ed095" y="114.295089"/>
     <use style="stroke:#ffffff;stroke-width:0.48;" x="119.05017" xlink:href="#mb7620ed095" y="143.771224"/>
     <use style="stroke:#ffffff;stroke-width:0.48;" x="138.476323" xlink:href="#mb7620ed095" y="84.094363"/>
     <use style="stroke:#ffffff;stroke-width:0.48;" x="116.108107" xlink:href="#mb7620ed095" y="158.009885"/>
     <use style="stroke:#ffffff;stroke-width:0.48;" x="105.887956" xlink:href="#mb7620ed095" y="146.218256"/>
     <use style="stroke:#ffffff;stroke-width:0.48;" x="112.382061" xlink:href="#mb7620ed095" y="211.139489"/>
     <use style="stroke:#ffffff;stroke-width:0.48;" x="376.093852" xlink:href="#mb7620ed095" y="186.911267"/>
     <use style="stroke:#ffffff;stroke-width:0.48;" x="116.623259" xlink:href="#mb7620ed095" y="148.456621"/>
     <use style="stroke:#ffffff;stroke-width:0.48;" x="140.728587" xlink:href="#mb7620ed095" y="101.535043"/>
     <use style="stroke:#ffffff;stroke-width:0.48;" x="221.598474" xlink:href="#mb7620ed095" y="102.125847"/>
     <use style="stroke:#ffffff;stroke-width:0.48;" x="236.520867" xlink:href="#mb7620ed095" y="135.036162"/>
     <use style="stroke:#ffffff;stroke-width:0.48;" x="217.390005" xlink:href="#mb7620ed095" y="218.529524"/>
     <use style="stroke:#ffffff;stroke-width:0.48;" x="109.268199" xlink:href="#mb7620ed095" y="120.376396"/>
     <use style="stroke:#ffffff;stroke-width:0.48;" x="541.899456" xlink:href="#mb7620ed095" y="249.826372"/>
     <use style="stroke:#ffffff;stroke-width:0.48;" x="112.65391" xlink:href="#mb7620ed095" y="154.285492"/>
     <use style="stroke:#ffffff;stroke-width:0.48;" x="102.49358" xlink:href="#mb7620ed095" y="175.669251"/>
     <use style="stroke:#ffffff;stroke-width:0.48;" x="108.649977" xlink:href="#mb7620ed095" y="187.856466"/>
     <use style="stroke:#ffffff;stroke-width:0.48;" x="568.968334" xlink:href="#mb7620ed095" y="186.960779"/>
     <use style="stroke:#ffffff;stroke-width:0.48;" x="106.210012" xlink:href="#mb7620ed095" y="157.681398"/>
     <use style="stroke:#ffffff;stroke-width:0.48;" x="517.306969" xlink:href="#mb7620ed095" y="174.611038"/>
     <use style="stroke:#ffffff;stroke-width:0.48;" x="589.324504" xlink:href="#mb7620ed095" y="216.483719"/>
     <use style="stroke:#ffffff;stroke-width:0.48;" x="239.864236" xlink:href="#mb7620ed095" y="168.58703"/>
     <use style="stroke:#ffffff;stroke-width:0.48;" x="590.402662" xlink:href="#mb7620ed095" y="226.405158"/>
     <use style="stroke:#ffffff;stroke-width:0.48;" x="493.670998" xlink:href="#mb7620ed095" y="198.911833"/>
     <use style="stroke:#ffffff;stroke-width:0.48;" x="434.94355" xlink:href="#mb7620ed095" y="204.945917"/>
     <use style="stroke:#ffffff;stroke-width:0.48;" x="162.10027" xlink:href="#mb7620ed095" y="250.058444"/>
     <use style="stroke:#ffffff;stroke-width:0.48;" x="582.264341" xlink:href="#mb7620ed095" y="223.361528"/>
     <use style="stroke:#ffffff;stroke-width:0.48;" x="190.171092" xlink:href="#mb7620ed095" y="155.912849"/>
     <use style="stroke:#ffffff;stroke-width:0.48;" x="595.063417" xlink:href="#mb7620ed095" y="207.792434"/>
     <use style="stroke:#ffffff;stroke-width:0.48;" x="576.460916" xlink:href="#mb7620ed095" y="226.655867"/>
     <use style="stroke:#ffffff;stroke-width:0.48;" x="107.009403" xlink:href="#mb7620ed095" y="181.716163"/>
     <use style="stroke:#ffffff;stroke-width:0.48;" x="551.500324" xlink:href="#mb7620ed095" y="298.055451"/>
     <use style="stroke:#ffffff;stroke-width:0.48;" x="579.377093" xlink:href="#mb7620ed095" y="265.485182"/>
     <use style="stroke:#ffffff;stroke-width:0.48;" x="112.059075" xlink:href="#mb7620ed095" y="183.811579"/>
     <use style="stroke:#ffffff;stroke-width:0.48;" x="573.213442" xlink:href="#mb7620ed095" y="193.552778"/>
     <use style="stroke:#ffffff;stroke-width:0.48;" x="158.21381" xlink:href="#mb7620ed095" y="156.432225"/>
     <use style="stroke:#ffffff;stroke-width:0.48;" x="133.703833" xlink:href="#mb7620ed095" y="121.500458"/>
     <use style="stroke:#ffffff;stroke-width:0.48;" x="525.988592" xlink:href="#mb7620ed095" y="209.138008"/>
    </g>
   </g>
   <g id="line2d_13">
    <path clip-path="url(#p6d1b2bd8a5)" d="M 123.901364 147.536272 
L 103.294466 143.182783 
L 141.695696 151.295567 
L 335.46185 192.231308 
L 591.39613 246.300914 
L 500.309409 227.057603 
L 597.574796 247.606242 
L 109.141608 144.418072 
L 110.632224 144.732985 
L 275.27773 179.516593 
L 113.909719 145.4254 
L 104.553754 143.448825 
L 595.91724 247.25606 
L 584.628752 244.871213 
L 592.842513 246.606482 
L 321.582841 189.299179 
L 110.095514 144.619598 
L 442.383845 214.820038 
L 106.951286 143.955336 
L 555.012301 238.614334 
L 117.251739 146.131448 
L 161.984123 155.581774 
L 100.288681 142.54777 
L 587.527687 245.483653 
L 104.521083 143.441923 
L 577.529958 243.371496 
L 119.007389 146.502353 
L 125.506425 147.875363 
L 567.647162 241.283621 
L 592.783379 246.593989 
L 120.255895 146.766116 
L 118.392975 146.372549 
L 263.581415 177.045587 
L 235.05779 171.019582 
L 115.259234 145.710504 
L 103.867921 143.303934 
L 446.940762 215.782748 
L 118.982575 146.49711 
L 123.764564 147.507371 
L 116.407965 145.953189 
L 119.05017 146.511391 
L 138.476323 150.61543 
L 116.108107 145.88984 
L 105.887956 143.730693 
L 112.382061 145.102662 
L 376.093852 200.815373 
L 116.623259 145.998673 
L 140.728587 151.091252 
L 221.598474 168.176118 
L 236.520867 171.328677 
L 217.390005 167.287022 
L 109.268199 144.444816 
L 541.899456 235.844067 
L 112.65391 145.160094 
L 102.49358 143.013585 
L 108.649977 144.314208 
L 568.968334 241.562737 
L 106.210012 143.798732 
L 517.306969 230.648569 
L 589.324504 245.863255 
L 239.864236 172.035009 
L 590.402662 246.091031 
L 493.670998 225.655148 
L 434.94355 213.248174 
L 162.10027 155.606311 
L 582.264341 244.371699 
L 190.171092 161.536655 
L 595.063417 247.075679 
L 576.460916 243.145647 
L 107.009403 143.967615 
L 551.500324 237.872381 
L 579.377093 243.761729 
L 112.059075 145.034427 
L 573.213442 242.459574 
L 158.21381 154.785243 
L 133.703833 149.607177 
L 525.988592 232.48268 
" style="fill:none;stroke:#0000ff;stroke-linecap:round;stroke-width:1.5;"/>
   </g>
   <g id="patch_3">
    <path d="M 75.424375 368.950625 
L 75.424375 41.580625 
" style="fill:none;stroke:#ffffff;stroke-linecap:square;stroke-linejoin:miter;stroke-width:1.25;"/>
   </g>
   <g id="patch_4">
    <path d="M 75.424375 368.950625 
L 622.439101 368.950625 
" style="fill:none;stroke:#ffffff;stroke-linecap:square;stroke-linejoin:miter;stroke-width:1.25;"/>
   </g>
   <g id="text_15">
    <!-- Internet Access by Black Population -->
    <g style="fill:#262626;" transform="translate(159.248769 35.580625)scale(0.22 -0.22)">
     <defs>
      <path d="M 6.59375 0 
L 6.59375 71.578125 
L 20.3125 71.578125 
L 20.3125 45.796875 
Q 26.65625 53.03125 35.359375 53.03125 
Q 44.828125 53.03125 51.03125 46.171875 
Q 57.234375 39.3125 57.234375 26.46875 
Q 57.234375 13.1875 50.90625 6 
Q 44.578125 -1.171875 35.546875 -1.171875 
Q 31.109375 -1.171875 26.78125 1.046875 
Q 22.46875 3.265625 19.34375 7.625 
L 19.34375 0 
z
M 20.21875 27.046875 
Q 20.21875 19 22.75 15.140625 
Q 26.3125 9.671875 32.234375 9.671875 
Q 36.765625 9.671875 39.96875 13.546875 
Q 43.171875 17.4375 43.171875 25.78125 
Q 43.171875 34.671875 39.9375 38.59375 
Q 36.71875 42.53125 31.6875 42.53125 
Q 26.765625 42.53125 23.484375 38.6875 
Q 20.21875 34.859375 20.21875 27.046875 
z
" id="Arial-BoldMT-98"/>
      <path d="M 0.6875 51.859375 
L 15.28125 51.859375 
L 27.6875 15.046875 
L 39.796875 51.859375 
L 54 51.859375 
L 35.6875 1.953125 
L 32.421875 -7.078125 
Q 30.609375 -11.625 28.96875 -14.015625 
Q 27.34375 -16.40625 25.21875 -17.890625 
Q 23.09375 -19.390625 19.984375 -20.21875 
Q 16.890625 -21.046875 12.984375 -21.046875 
Q 9.03125 -21.046875 5.21875 -20.21875 
L 4 -9.46875 
Q 7.234375 -10.109375 9.8125 -10.109375 
Q 14.59375 -10.109375 16.890625 -7.296875 
Q 19.1875 -4.5 20.40625 -0.140625 
z
" id="Arial-BoldMT-121"/>
     </defs>
     <use xlink:href="#Arial-BoldMT-73"/>
     <use x="27.783203" xlink:href="#Arial-BoldMT-110"/>
     <use x="88.867188" xlink:href="#Arial-BoldMT-116"/>
     <use x="122.167969" xlink:href="#Arial-BoldMT-101"/>
     <use x="177.783203" xlink:href="#Arial-BoldMT-114"/>
     <use x="216.699219" xlink:href="#Arial-BoldMT-110"/>
     <use x="277.783203" xlink:href="#Arial-BoldMT-101"/>
     <use x="333.398438" xlink:href="#Arial-BoldMT-116"/>
     <use x="366.699219" xlink:href="#Arial-BoldMT-32"/>
     <use x="390.732422" xlink:href="#Arial-BoldMT-65"/>
     <use x="462.949219" xlink:href="#Arial-BoldMT-99"/>
     <use x="518.564453" xlink:href="#Arial-BoldMT-99"/>
     <use x="574.179688" xlink:href="#Arial-BoldMT-101"/>
     <use x="629.794922" xlink:href="#Arial-BoldMT-115"/>
     <use x="685.410156" xlink:href="#Arial-BoldMT-115"/>
     <use x="741.025391" xlink:href="#Arial-BoldMT-32"/>
     <use x="768.808594" xlink:href="#Arial-BoldMT-98"/>
     <use x="829.892578" xlink:href="#Arial-BoldMT-121"/>
     <use x="885.507812" xlink:href="#Arial-BoldMT-32"/>
     <use x="913.291016" xlink:href="#Arial-BoldMT-66"/>
     <use x="985.507812" xlink:href="#Arial-BoldMT-108"/>
     <use x="1013.291016" xlink:href="#Arial-BoldMT-97"/>
     <use x="1068.90625" xlink:href="#Arial-BoldMT-99"/>
     <use x="1124.521484" xlink:href="#Arial-BoldMT-107"/>
     <use x="1180.136719" xlink:href="#Arial-BoldMT-32"/>
     <use x="1207.919922" xlink:href="#Arial-BoldMT-80"/>
     <use x="1274.619141" xlink:href="#Arial-BoldMT-111"/>
     <use x="1335.703125" xlink:href="#Arial-BoldMT-112"/>
     <use x="1396.787109" xlink:href="#Arial-BoldMT-117"/>
     <use x="1457.871094" xlink:href="#Arial-BoldMT-108"/>
     <use x="1485.654297" xlink:href="#Arial-BoldMT-97"/>
     <use x="1541.269531" xlink:href="#Arial-BoldMT-116"/>
     <use x="1574.570312" xlink:href="#Arial-BoldMT-105"/>
     <use x="1602.353516" xlink:href="#Arial-BoldMT-111"/>
     <use x="1663.4375" xlink:href="#Arial-BoldMT-110"/>
    </g>
   </g>
  </g>
 </g>
 <defs>
  <clipPath id="p6d1b2bd8a5">
   <rect height="327.37" width="547.014726" x="75.424375" y="41.580625"/>
  </clipPath>
 </defs>
</svg>
