<?xml version="1.0" encoding="utf-8" standalone="no"?>
<!DOCTYPE svg PUBLIC "-//W3C//DTD SVG 1.1//EN"
  "http://www.w3.org/Graphics/SVG/1.1/DTD/svg11.dtd">
<!-- Created with matplotlib (https://matplotlib.org/) -->
<svg height="432pt" version="1.1" viewBox="0 0 648 432" width="648pt" xmlns="http://www.w3.org/2000/svg" xmlns:xlink="http://www.w3.org/1999/xlink">
 <metadata>
  <rdf:RDF xmlns:cc="http://creativecommons.org/ns#" xmlns:dc="http://purl.org/dc/elements/1.1/" xmlns:rdf="http://www.w3.org/1999/02/22-rdf-syntax-ns#">
   <cc:Work>
    <dc:type rdf:resource="http://purl.org/dc/dcmitype/StillImage"/>
    <dc:date>2022-04-12T09:15:19.158583</dc:date>
    <dc:format>image/svg+xml</dc:format>
    <dc:creator>
     <cc:Agent>
      <dc:title>Matplotlib v3.3.4, https://matplotlib.org/</dc:title>
     </cc:Agent>
    </dc:creator>
   </cc:Work>
  </rdf:RDF>
 </metadata>
 <defs>
  <style type="text/css">*{stroke-linecap:butt;stroke-linejoin:round;}</style>
 </defs>
 <g id="figure_1">
  <g id="patch_1">
   <path d="M 0 432 
L 648 432 
L 648 0 
L 0 0 
z
" style="fill:#ffffff;"/>
  </g>
  <g id="axes_1">
   <g id="patch_2">
    <path d="M 66.299375 368.950625 
L 628.56 368.950625 
L 628.56 41.580625 
L 66.299375 41.580625 
z
" style="fill:#eaeaf2;"/>
   </g>
   <g id="matplotlib.axis_1">
    <g id="xtick_1">
     <g id="line2d_1">
      <path clip-path="url(#p3edf3b1684)" d="M 143.228136 368.950625 
L 143.228136 41.580625 
" style="fill:none;stroke:#ffffff;stroke-linecap:round;"/>
     </g>
     <g id="text_1">
      <!-- 10 -->
      <g style="fill:#262626;" transform="translate(134.052589 390.261016)scale(0.165 -0.165)">
       <defs>
        <path d="M 37.25 0 
L 28.46875 0 
L 28.46875 56 
Q 25.296875 52.984375 20.140625 49.953125 
Q 14.984375 46.921875 10.890625 45.40625 
L 10.890625 53.90625 
Q 18.265625 57.375 23.78125 62.296875 
Q 29.296875 67.234375 31.59375 71.875 
L 37.25 71.875 
z
" id="ArialMT-49"/>
        <path d="M 4.15625 35.296875 
Q 4.15625 48 6.765625 55.734375 
Q 9.375 63.484375 14.515625 67.671875 
Q 19.671875 71.875 27.484375 71.875 
Q 33.25 71.875 37.59375 69.546875 
Q 41.9375 67.234375 44.765625 62.859375 
Q 47.609375 58.5 49.21875 52.21875 
Q 50.828125 45.953125 50.828125 35.296875 
Q 50.828125 22.703125 48.234375 14.96875 
Q 45.65625 7.234375 40.5 3 
Q 35.359375 -1.21875 27.484375 -1.21875 
Q 17.140625 -1.21875 11.234375 6.203125 
Q 4.15625 15.140625 4.15625 35.296875 
z
M 13.1875 35.296875 
Q 13.1875 17.671875 17.3125 11.828125 
Q 21.4375 6 27.484375 6 
Q 33.546875 6 37.671875 11.859375 
Q 41.796875 17.71875 41.796875 35.296875 
Q 41.796875 52.984375 37.671875 58.78125 
Q 33.546875 64.59375 27.390625 64.59375 
Q 21.34375 64.59375 17.71875 59.46875 
Q 13.1875 52.9375 13.1875 35.296875 
z
" id="ArialMT-48"/>
       </defs>
       <use xlink:href="#ArialMT-49"/>
       <use x="55.615234" xlink:href="#ArialMT-48"/>
      </g>
     </g>
    </g>
    <g id="xtick_2">
     <g id="line2d_2">
      <path clip-path="url(#p3edf3b1684)" d="M 228.847235 368.950625 
L 228.847235 41.580625 
" style="fill:none;stroke:#ffffff;stroke-linecap:round;"/>
     </g>
     <g id="text_2">
      <!-- 20 -->
      <g style="fill:#262626;" transform="translate(219.671688 390.261016)scale(0.165 -0.165)">
       <defs>
        <path d="M 50.34375 8.453125 
L 50.34375 0 
L 3.03125 0 
Q 2.9375 3.171875 4.046875 6.109375 
Q 5.859375 10.9375 9.828125 15.625 
Q 13.8125 20.3125 21.34375 26.46875 
Q 33.015625 36.03125 37.109375 41.625 
Q 41.21875 47.21875 41.21875 52.203125 
Q 41.21875 57.421875 37.46875 61 
Q 33.734375 64.59375 27.734375 64.59375 
Q 21.390625 64.59375 17.578125 60.78125 
Q 13.765625 56.984375 13.71875 50.25 
L 4.6875 51.171875 
Q 5.609375 61.28125 11.65625 66.578125 
Q 17.71875 71.875 27.9375 71.875 
Q 38.234375 71.875 44.234375 66.15625 
Q 50.25 60.453125 50.25 52 
Q 50.25 47.703125 48.484375 43.546875 
Q 46.734375 39.40625 42.65625 34.8125 
Q 38.578125 30.21875 29.109375 22.21875 
Q 21.1875 15.578125 18.9375 13.203125 
Q 16.703125 10.84375 15.234375 8.453125 
z
" id="ArialMT-50"/>
       </defs>
       <use xlink:href="#ArialMT-50"/>
       <use x="55.615234" xlink:href="#ArialMT-48"/>
      </g>
     </g>
    </g>
    <g id="xtick_3">
     <g id="line2d_3">
      <path clip-path="url(#p3edf3b1684)" d="M 314.466334 368.950625 
L 314.466334 41.580625 
" style="fill:none;stroke:#ffffff;stroke-linecap:round;"/>
     </g>
     <g id="text_3">
      <!-- 30 -->
      <g style="fill:#262626;" transform="translate(305.290787 390.261016)scale(0.165 -0.165)">
       <defs>
        <path d="M 4.203125 18.890625 
L 12.984375 20.0625 
Q 14.5 12.59375 18.140625 9.296875 
Q 21.78125 6 27 6 
Q 33.203125 6 37.46875 10.296875 
Q 41.75 14.59375 41.75 20.953125 
Q 41.75 27 37.796875 30.921875 
Q 33.84375 34.859375 27.734375 34.859375 
Q 25.25 34.859375 21.53125 33.890625 
L 22.515625 41.609375 
Q 23.390625 41.5 23.921875 41.5 
Q 29.546875 41.5 34.03125 44.421875 
Q 38.53125 47.359375 38.53125 53.46875 
Q 38.53125 58.296875 35.25 61.46875 
Q 31.984375 64.65625 26.8125 64.65625 
Q 21.6875 64.65625 18.265625 61.421875 
Q 14.84375 58.203125 13.875 51.765625 
L 5.078125 53.328125 
Q 6.6875 62.15625 12.390625 67.015625 
Q 18.109375 71.875 26.609375 71.875 
Q 32.46875 71.875 37.390625 69.359375 
Q 42.328125 66.84375 44.9375 62.5 
Q 47.5625 58.15625 47.5625 53.265625 
Q 47.5625 48.640625 45.0625 44.828125 
Q 42.578125 41.015625 37.703125 38.765625 
Q 44.046875 37.3125 47.5625 32.6875 
Q 51.078125 28.078125 51.078125 21.140625 
Q 51.078125 11.765625 44.234375 5.25 
Q 37.40625 -1.265625 26.953125 -1.265625 
Q 17.53125 -1.265625 11.296875 4.34375 
Q 5.078125 9.96875 4.203125 18.890625 
z
" id="ArialMT-51"/>
       </defs>
       <use xlink:href="#ArialMT-51"/>
       <use x="55.615234" xlink:href="#ArialMT-48"/>
      </g>
     </g>
    </g>
    <g id="xtick_4">
     <g id="line2d_4">
      <path clip-path="url(#p3edf3b1684)" d="M 400.085434 368.950625 
L 400.085434 41.580625 
" style="fill:none;stroke:#ffffff;stroke-linecap:round;"/>
     </g>
     <g id="text_4">
      <!-- 40 -->
      <g style="fill:#262626;" transform="translate(390.909887 390.261016)scale(0.165 -0.165)">
       <defs>
        <path d="M 32.328125 0 
L 32.328125 17.140625 
L 1.265625 17.140625 
L 1.265625 25.203125 
L 33.9375 71.578125 
L 41.109375 71.578125 
L 41.109375 25.203125 
L 50.78125 25.203125 
L 50.78125 17.140625 
L 41.109375 17.140625 
L 41.109375 0 
z
M 32.328125 25.203125 
L 32.328125 57.46875 
L 9.90625 25.203125 
z
" id="ArialMT-52"/>
       </defs>
       <use xlink:href="#ArialMT-52"/>
       <use x="55.615234" xlink:href="#ArialMT-48"/>
      </g>
     </g>
    </g>
    <g id="xtick_5">
     <g id="line2d_5">
      <path clip-path="url(#p3edf3b1684)" d="M 485.704533 368.950625 
L 485.704533 41.580625 
" style="fill:none;stroke:#ffffff;stroke-linecap:round;"/>
     </g>
     <g id="text_5">
      <!-- 50 -->
      <g style="fill:#262626;" transform="translate(476.528986 390.261016)scale(0.165 -0.165)">
       <defs>
        <path d="M 4.15625 18.75 
L 13.375 19.53125 
Q 14.40625 12.796875 18.140625 9.390625 
Q 21.875 6 27.15625 6 
Q 33.5 6 37.890625 10.78125 
Q 42.28125 15.578125 42.28125 23.484375 
Q 42.28125 31 38.0625 35.34375 
Q 33.84375 39.703125 27 39.703125 
Q 22.75 39.703125 19.328125 37.765625 
Q 15.921875 35.84375 13.96875 32.765625 
L 5.71875 33.84375 
L 12.640625 70.609375 
L 48.25 70.609375 
L 48.25 62.203125 
L 19.671875 62.203125 
L 15.828125 42.96875 
Q 22.265625 47.46875 29.34375 47.46875 
Q 38.71875 47.46875 45.15625 40.96875 
Q 51.609375 34.46875 51.609375 24.265625 
Q 51.609375 14.546875 45.953125 7.46875 
Q 39.0625 -1.21875 27.15625 -1.21875 
Q 17.390625 -1.21875 11.203125 4.25 
Q 5.03125 9.71875 4.15625 18.75 
z
" id="ArialMT-53"/>
       </defs>
       <use xlink:href="#ArialMT-53"/>
       <use x="55.615234" xlink:href="#ArialMT-48"/>
      </g>
     </g>
    </g>
    <g id="xtick_6">
     <g id="line2d_6">
      <path clip-path="url(#p3edf3b1684)" d="M 571.323632 368.950625 
L 571.323632 41.580625 
" style="fill:none;stroke:#ffffff;stroke-linecap:round;"/>
     </g>
     <g id="text_6">
      <!-- 60 -->
      <g style="fill:#262626;" transform="translate(562.148085 390.261016)scale(0.165 -0.165)">
       <defs>
        <path d="M 49.75 54.046875 
L 41.015625 53.375 
Q 39.84375 58.546875 37.703125 60.890625 
Q 34.125 64.65625 28.90625 64.65625 
Q 24.703125 64.65625 21.53125 62.3125 
Q 17.390625 59.28125 14.984375 53.46875 
Q 12.59375 47.65625 12.5 36.921875 
Q 15.671875 41.75 20.265625 44.09375 
Q 24.859375 46.4375 29.890625 46.4375 
Q 38.671875 46.4375 44.84375 39.96875 
Q 51.03125 33.5 51.03125 23.25 
Q 51.03125 16.5 48.125 10.71875 
Q 45.21875 4.9375 40.140625 1.859375 
Q 35.0625 -1.21875 28.609375 -1.21875 
Q 17.625 -1.21875 10.6875 6.859375 
Q 3.765625 14.9375 3.765625 33.5 
Q 3.765625 54.25 11.421875 63.671875 
Q 18.109375 71.875 29.4375 71.875 
Q 37.890625 71.875 43.28125 67.140625 
Q 48.6875 62.40625 49.75 54.046875 
z
M 13.875 23.1875 
Q 13.875 18.65625 15.796875 14.5 
Q 17.71875 10.359375 21.1875 8.171875 
Q 24.65625 6 28.46875 6 
Q 34.03125 6 38.03125 10.484375 
Q 42.046875 14.984375 42.046875 22.703125 
Q 42.046875 30.125 38.078125 34.390625 
Q 34.125 38.671875 28.125 38.671875 
Q 22.171875 38.671875 18.015625 34.390625 
Q 13.875 30.125 13.875 23.1875 
z
" id="ArialMT-54"/>
       </defs>
       <use xlink:href="#ArialMT-54"/>
       <use x="55.615234" xlink:href="#ArialMT-48"/>
      </g>
     </g>
    </g>
    <g id="text_7">
     <!-- Community Area CCVI -->
     <g style="fill:#262626;" transform="translate(262.383437 409.187891)scale(0.16 -0.16)">
      <defs>
       <path d="M 53.078125 26.3125 
L 67.09375 21.875 
Q 63.875 10.15625 56.375 4.46875 
Q 48.875 -1.21875 37.359375 -1.21875 
Q 23.09375 -1.21875 13.90625 8.515625 
Q 4.734375 18.265625 4.734375 35.15625 
Q 4.734375 53.03125 13.953125 62.90625 
Q 23.1875 72.796875 38.234375 72.796875 
Q 51.375 72.796875 59.578125 65.046875 
Q 64.453125 60.453125 66.890625 51.859375 
L 52.59375 48.4375 
Q 51.3125 54 47.28125 57.21875 
Q 43.265625 60.453125 37.5 60.453125 
Q 29.546875 60.453125 24.578125 54.734375 
Q 19.625 49.03125 19.625 36.234375 
Q 19.625 22.65625 24.5 16.890625 
Q 29.390625 11.140625 37.203125 11.140625 
Q 42.96875 11.140625 47.109375 14.796875 
Q 51.265625 18.453125 53.078125 26.3125 
z
" id="Arial-BoldMT-67"/>
       <path d="M 4 26.65625 
Q 4 33.5 7.375 39.890625 
Q 10.75 46.296875 16.921875 49.65625 
Q 23.09375 53.03125 30.71875 53.03125 
Q 42.484375 53.03125 50 45.390625 
Q 57.515625 37.75 57.515625 26.078125 
Q 57.515625 14.3125 49.921875 6.5625 
Q 42.328125 -1.171875 30.8125 -1.171875 
Q 23.6875 -1.171875 17.21875 2.046875 
Q 10.75 5.28125 7.375 11.5 
Q 4 17.71875 4 26.65625 
z
M 18.0625 25.921875 
Q 18.0625 18.21875 21.71875 14.109375 
Q 25.390625 10.015625 30.765625 10.015625 
Q 36.140625 10.015625 39.765625 14.109375 
Q 43.40625 18.21875 43.40625 26.03125 
Q 43.40625 33.640625 39.765625 37.734375 
Q 36.140625 41.84375 30.765625 41.84375 
Q 25.390625 41.84375 21.71875 37.734375 
Q 18.0625 33.640625 18.0625 25.921875 
z
" id="Arial-BoldMT-111"/>
       <path d="M 6.15625 51.859375 
L 18.796875 51.859375 
L 18.796875 44.78125 
Q 25.59375 53.03125 34.96875 53.03125 
Q 39.9375 53.03125 43.59375 50.96875 
Q 47.265625 48.921875 49.609375 44.78125 
Q 53.03125 48.921875 56.984375 50.96875 
Q 60.9375 53.03125 65.4375 53.03125 
Q 71.140625 53.03125 75.09375 50.703125 
Q 79.046875 48.390625 81 43.890625 
Q 82.421875 40.578125 82.421875 33.15625 
L 82.421875 0 
L 68.703125 0 
L 68.703125 29.640625 
Q 68.703125 37.359375 67.28125 39.59375 
Q 65.375 42.53125 61.421875 42.53125 
Q 58.546875 42.53125 56 40.765625 
Q 53.46875 39.015625 52.34375 35.625 
Q 51.21875 32.234375 51.21875 24.90625 
L 51.21875 0 
L 37.5 0 
L 37.5 28.421875 
Q 37.5 35.984375 36.765625 38.171875 
Q 36.03125 40.375 34.484375 41.453125 
Q 32.953125 42.53125 30.328125 42.53125 
Q 27.15625 42.53125 24.609375 40.8125 
Q 22.078125 39.109375 20.96875 35.890625 
Q 19.875 32.671875 19.875 25.203125 
L 19.875 0 
L 6.15625 0 
z
" id="Arial-BoldMT-109"/>
       <path d="M 41.3125 0 
L 41.3125 7.765625 
Q 38.484375 3.609375 33.859375 1.21875 
Q 29.25 -1.171875 24.125 -1.171875 
Q 18.890625 -1.171875 14.734375 1.125 
Q 10.59375 3.421875 8.734375 7.5625 
Q 6.890625 11.71875 6.890625 19.046875 
L 6.890625 51.859375 
L 20.609375 51.859375 
L 20.609375 28.03125 
Q 20.609375 17.09375 21.359375 14.625 
Q 22.125 12.15625 24.125 10.71875 
Q 26.125 9.28125 29.203125 9.28125 
Q 32.71875 9.28125 35.5 11.203125 
Q 38.28125 13.140625 39.296875 15.984375 
Q 40.328125 18.84375 40.328125 29.984375 
L 40.328125 51.859375 
L 54.046875 51.859375 
L 54.046875 0 
z
" id="Arial-BoldMT-117"/>
       <path d="M 54.34375 0 
L 40.625 0 
L 40.625 26.46875 
Q 40.625 34.859375 39.75 37.328125 
Q 38.875 39.796875 36.890625 41.15625 
Q 34.90625 42.53125 32.125 42.53125 
Q 28.5625 42.53125 25.734375 40.578125 
Q 22.90625 38.625 21.84375 35.390625 
Q 20.796875 32.171875 20.796875 23.484375 
L 20.796875 0 
L 7.078125 0 
L 7.078125 51.859375 
L 19.828125 51.859375 
L 19.828125 44.234375 
Q 26.609375 53.03125 36.921875 53.03125 
Q 41.453125 53.03125 45.203125 51.390625 
Q 48.96875 49.75 50.890625 47.203125 
Q 52.828125 44.671875 53.578125 41.453125 
Q 54.34375 38.234375 54.34375 32.234375 
z
" id="Arial-BoldMT-110"/>
       <path d="M 7.171875 58.890625 
L 7.171875 71.578125 
L 20.90625 71.578125 
L 20.90625 58.890625 
z
M 7.171875 0 
L 7.171875 51.859375 
L 20.90625 51.859375 
L 20.90625 0 
z
" id="Arial-BoldMT-105"/>
       <path d="M 30.953125 51.859375 
L 30.953125 40.921875 
L 21.578125 40.921875 
L 21.578125 20.015625 
Q 21.578125 13.671875 21.84375 12.625 
Q 22.125 11.578125 23.078125 10.890625 
Q 24.03125 10.203125 25.390625 10.203125 
Q 27.296875 10.203125 30.90625 11.53125 
L 32.078125 0.875 
Q 27.296875 -1.171875 21.234375 -1.171875 
Q 17.53125 -1.171875 14.546875 0.0625 
Q 11.578125 1.3125 10.1875 3.296875 
Q 8.796875 5.28125 8.25 8.640625 
Q 7.8125 11.03125 7.8125 18.3125 
L 7.8125 40.921875 
L 1.515625 40.921875 
L 1.515625 51.859375 
L 7.8125 51.859375 
L 7.8125 62.15625 
L 21.578125 70.171875 
L 21.578125 51.859375 
z
" id="Arial-BoldMT-116"/>
       <path d="M 0.6875 51.859375 
L 15.28125 51.859375 
L 27.6875 15.046875 
L 39.796875 51.859375 
L 54 51.859375 
L 35.6875 1.953125 
L 32.421875 -7.078125 
Q 30.609375 -11.625 28.96875 -14.015625 
Q 27.34375 -16.40625 25.21875 -17.890625 
Q 23.09375 -19.390625 19.984375 -20.21875 
Q 16.890625 -21.046875 12.984375 -21.046875 
Q 9.03125 -21.046875 5.21875 -20.21875 
L 4 -9.46875 
Q 7.234375 -10.109375 9.8125 -10.109375 
Q 14.59375 -10.109375 16.890625 -7.296875 
Q 19.1875 -4.5 20.40625 -0.140625 
z
" id="Arial-BoldMT-121"/>
       <path id="Arial-BoldMT-32"/>
       <path d="M 71.828125 0 
L 56.109375 0 
L 49.859375 16.265625 
L 21.234375 16.265625 
L 15.328125 0 
L 0 0 
L 27.875 71.578125 
L 43.171875 71.578125 
z
M 45.21875 28.328125 
L 35.359375 54.890625 
L 25.6875 28.328125 
z
" id="Arial-BoldMT-65"/>
       <path d="M 20.3125 0 
L 6.59375 0 
L 6.59375 51.859375 
L 19.34375 51.859375 
L 19.34375 44.484375 
Q 22.609375 49.703125 25.21875 51.359375 
Q 27.828125 53.03125 31.15625 53.03125 
Q 35.84375 53.03125 40.1875 50.4375 
L 35.9375 38.484375 
Q 32.46875 40.71875 29.5 40.71875 
Q 26.609375 40.71875 24.609375 39.125 
Q 22.609375 37.546875 21.453125 33.390625 
Q 20.3125 29.25 20.3125 16.015625 
z
" id="Arial-BoldMT-114"/>
       <path d="M 37.203125 16.5 
L 50.875 14.203125 
Q 48.25 6.6875 42.546875 2.75 
Q 36.859375 -1.171875 28.328125 -1.171875 
Q 14.796875 -1.171875 8.296875 7.671875 
Q 3.171875 14.75 3.171875 25.53125 
Q 3.171875 38.421875 9.90625 45.71875 
Q 16.65625 53.03125 26.953125 53.03125 
Q 38.53125 53.03125 45.21875 45.390625 
Q 51.90625 37.75 51.609375 21.96875 
L 17.234375 21.96875 
Q 17.390625 15.875 20.5625 12.46875 
Q 23.734375 9.078125 28.46875 9.078125 
Q 31.6875 9.078125 33.875 10.828125 
Q 36.078125 12.59375 37.203125 16.5 
z
M 37.984375 30.375 
Q 37.84375 36.328125 34.90625 39.421875 
Q 31.984375 42.53125 27.78125 42.53125 
Q 23.296875 42.53125 20.359375 39.265625 
Q 17.4375 35.984375 17.484375 30.375 
z
" id="Arial-BoldMT-101"/>
       <path d="M 17.4375 36.03125 
L 4.984375 38.28125 
Q 7.078125 45.796875 12.203125 49.40625 
Q 17.328125 53.03125 27.4375 53.03125 
Q 36.625 53.03125 41.109375 50.859375 
Q 45.609375 48.6875 47.4375 45.34375 
Q 49.265625 42 49.265625 33.0625 
L 49.125 17.046875 
Q 49.125 10.203125 49.78125 6.953125 
Q 50.4375 3.71875 52.25 0 
L 38.671875 0 
Q 38.140625 1.375 37.359375 4.046875 
Q 37.015625 5.28125 36.859375 5.671875 
Q 33.34375 2.25 29.34375 0.53125 
Q 25.34375 -1.171875 20.796875 -1.171875 
Q 12.796875 -1.171875 8.171875 3.171875 
Q 3.5625 7.515625 3.5625 14.15625 
Q 3.5625 18.5625 5.65625 22 
Q 7.765625 25.4375 11.546875 27.265625 
Q 15.328125 29.109375 22.46875 30.46875 
Q 32.078125 32.28125 35.796875 33.84375 
L 35.796875 35.203125 
Q 35.796875 39.15625 33.84375 40.84375 
Q 31.890625 42.53125 26.46875 42.53125 
Q 22.796875 42.53125 20.75 41.09375 
Q 18.703125 39.65625 17.4375 36.03125 
z
M 35.796875 24.90625 
Q 33.15625 24.03125 27.4375 22.796875 
Q 21.734375 21.578125 19.96875 20.40625 
Q 17.28125 18.5 17.28125 15.578125 
Q 17.28125 12.703125 19.421875 10.59375 
Q 21.578125 8.5 24.90625 8.5 
Q 28.609375 8.5 31.984375 10.9375 
Q 34.46875 12.796875 35.25 15.484375 
Q 35.796875 17.234375 35.796875 22.171875 
z
" id="Arial-BoldMT-97"/>
       <path d="M 25.53125 0 
L -0.046875 71.578125 
L 15.625 71.578125 
L 33.734375 18.609375 
L 51.265625 71.578125 
L 66.609375 71.578125 
L 40.96875 0 
z
" id="Arial-BoldMT-86"/>
       <path d="M 6.84375 0 
L 6.84375 71.578125 
L 21.296875 71.578125 
L 21.296875 0 
z
" id="Arial-BoldMT-73"/>
      </defs>
      <use xlink:href="#Arial-BoldMT-67"/>
      <use x="72.216797" xlink:href="#Arial-BoldMT-111"/>
      <use x="133.300781" xlink:href="#Arial-BoldMT-109"/>
      <use x="222.216797" xlink:href="#Arial-BoldMT-109"/>
      <use x="311.132812" xlink:href="#Arial-BoldMT-117"/>
      <use x="372.216797" xlink:href="#Arial-BoldMT-110"/>
      <use x="433.300781" xlink:href="#Arial-BoldMT-105"/>
      <use x="461.083984" xlink:href="#Arial-BoldMT-116"/>
      <use x="494.384766" xlink:href="#Arial-BoldMT-121"/>
      <use x="550" xlink:href="#Arial-BoldMT-32"/>
      <use x="574.033203" xlink:href="#Arial-BoldMT-65"/>
      <use x="646.25" xlink:href="#Arial-BoldMT-114"/>
      <use x="685.166016" xlink:href="#Arial-BoldMT-101"/>
      <use x="740.78125" xlink:href="#Arial-BoldMT-97"/>
      <use x="796.396484" xlink:href="#Arial-BoldMT-32"/>
      <use x="824.179688" xlink:href="#Arial-BoldMT-67"/>
      <use x="896.396484" xlink:href="#Arial-BoldMT-67"/>
      <use x="968.613281" xlink:href="#Arial-BoldMT-86"/>
      <use x="1035.3125" xlink:href="#Arial-BoldMT-73"/>
     </g>
    </g>
   </g>
   <g id="matplotlib.axis_2">
    <g id="ytick_1">
     <g id="line2d_7">
      <path clip-path="url(#p3edf3b1684)" d="M 66.299375 368.950625 
L 628.56 368.950625 
" style="fill:none;stroke:#ffffff;stroke-linecap:round;"/>
     </g>
     <g id="text_8">
      <!-- 55 -->
      <g style="fill:#262626;" transform="translate(38.448281 374.85582)scale(0.165 -0.165)">
       <use xlink:href="#ArialMT-53"/>
       <use x="55.615234" xlink:href="#ArialMT-53"/>
      </g>
     </g>
    </g>
    <g id="ytick_2">
     <g id="line2d_8">
      <path clip-path="url(#p3edf3b1684)" d="M 66.299375 332.464136 
L 628.56 332.464136 
" style="fill:none;stroke:#ffffff;stroke-linecap:round;"/>
     </g>
     <g id="text_9">
      <!-- 60 -->
      <g style="fill:#262626;" transform="translate(38.448281 338.369332)scale(0.165 -0.165)">
       <use xlink:href="#ArialMT-54"/>
       <use x="55.615234" xlink:href="#ArialMT-48"/>
      </g>
     </g>
    </g>
    <g id="ytick_3">
     <g id="line2d_9">
      <path clip-path="url(#p3edf3b1684)" d="M 66.299375 295.977648 
L 628.56 295.977648 
" style="fill:none;stroke:#ffffff;stroke-linecap:round;"/>
     </g>
     <g id="text_10">
      <!-- 65 -->
      <g style="fill:#262626;" transform="translate(38.448281 301.882843)scale(0.165 -0.165)">
       <use xlink:href="#ArialMT-54"/>
       <use x="55.615234" xlink:href="#ArialMT-53"/>
      </g>
     </g>
    </g>
    <g id="ytick_4">
     <g id="line2d_10">
      <path clip-path="url(#p3edf3b1684)" d="M 66.299375 259.491159 
L 628.56 259.491159 
" style="fill:none;stroke:#ffffff;stroke-linecap:round;"/>
     </g>
     <g id="text_11">
      <!-- 70 -->
      <g style="fill:#262626;" transform="translate(38.448281 265.396355)scale(0.165 -0.165)">
       <defs>
        <path d="M 4.734375 62.203125 
L 4.734375 70.65625 
L 51.078125 70.65625 
L 51.078125 63.8125 
Q 44.234375 56.546875 37.515625 44.484375 
Q 30.8125 32.421875 27.15625 19.671875 
Q 24.515625 10.6875 23.78125 0 
L 14.75 0 
Q 14.890625 8.453125 18.0625 20.40625 
Q 21.234375 32.375 27.171875 43.484375 
Q 33.109375 54.59375 39.796875 62.203125 
z
" id="ArialMT-55"/>
       </defs>
       <use xlink:href="#ArialMT-55"/>
       <use x="55.615234" xlink:href="#ArialMT-48"/>
      </g>
     </g>
    </g>
    <g id="ytick_5">
     <g id="line2d_11">
      <path clip-path="url(#p3edf3b1684)" d="M 66.299375 223.004671 
L 628.56 223.004671 
" style="fill:none;stroke:#ffffff;stroke-linecap:round;"/>
     </g>
     <g id="text_12">
      <!-- 75 -->
      <g style="fill:#262626;" transform="translate(38.448281 228.909866)scale(0.165 -0.165)">
       <use xlink:href="#ArialMT-55"/>
       <use x="55.615234" xlink:href="#ArialMT-53"/>
      </g>
     </g>
    </g>
    <g id="ytick_6">
     <g id="line2d_12">
      <path clip-path="url(#p3edf3b1684)" d="M 66.299375 186.518182 
L 628.56 186.518182 
" style="fill:none;stroke:#ffffff;stroke-linecap:round;"/>
     </g>
     <g id="text_13">
      <!-- 80 -->
      <g style="fill:#262626;" transform="translate(38.448281 192.423377)scale(0.165 -0.165)">
       <defs>
        <path d="M 17.671875 38.8125 
Q 12.203125 40.828125 9.5625 44.53125 
Q 6.9375 48.25 6.9375 53.421875 
Q 6.9375 61.234375 12.546875 66.546875 
Q 18.171875 71.875 27.484375 71.875 
Q 36.859375 71.875 42.578125 66.421875 
Q 48.296875 60.984375 48.296875 53.171875 
Q 48.296875 48.1875 45.671875 44.5 
Q 43.0625 40.828125 37.75 38.8125 
Q 44.34375 36.671875 47.78125 31.875 
Q 51.21875 27.09375 51.21875 20.453125 
Q 51.21875 11.28125 44.71875 5.03125 
Q 38.234375 -1.21875 27.640625 -1.21875 
Q 17.046875 -1.21875 10.546875 5.046875 
Q 4.046875 11.328125 4.046875 20.703125 
Q 4.046875 27.6875 7.59375 32.390625 
Q 11.140625 37.109375 17.671875 38.8125 
z
M 15.921875 53.71875 
Q 15.921875 48.640625 19.1875 45.40625 
Q 22.46875 42.1875 27.6875 42.1875 
Q 32.765625 42.1875 36.015625 45.375 
Q 39.265625 48.578125 39.265625 53.21875 
Q 39.265625 58.0625 35.90625 61.359375 
Q 32.5625 64.65625 27.59375 64.65625 
Q 22.5625 64.65625 19.234375 61.421875 
Q 15.921875 58.203125 15.921875 53.71875 
z
M 13.09375 20.65625 
Q 13.09375 16.890625 14.875 13.375 
Q 16.65625 9.859375 20.171875 7.921875 
Q 23.6875 6 27.734375 6 
Q 34.03125 6 38.125 10.046875 
Q 42.234375 14.109375 42.234375 20.359375 
Q 42.234375 26.703125 38.015625 30.859375 
Q 33.796875 35.015625 27.4375 35.015625 
Q 21.234375 35.015625 17.15625 30.90625 
Q 13.09375 26.8125 13.09375 20.65625 
z
" id="ArialMT-56"/>
       </defs>
       <use xlink:href="#ArialMT-56"/>
       <use x="55.615234" xlink:href="#ArialMT-48"/>
      </g>
     </g>
    </g>
    <g id="ytick_7">
     <g id="line2d_13">
      <path clip-path="url(#p3edf3b1684)" d="M 66.299375 150.031693 
L 628.56 150.031693 
" style="fill:none;stroke:#ffffff;stroke-linecap:round;"/>
     </g>
     <g id="text_14">
      <!-- 85 -->
      <g style="fill:#262626;" transform="translate(38.448281 155.936889)scale(0.165 -0.165)">
       <use xlink:href="#ArialMT-56"/>
       <use x="55.615234" xlink:href="#ArialMT-53"/>
      </g>
     </g>
    </g>
    <g id="ytick_8">
     <g id="line2d_14">
      <path clip-path="url(#p3edf3b1684)" d="M 66.299375 113.545205 
L 628.56 113.545205 
" style="fill:none;stroke:#ffffff;stroke-linecap:round;"/>
     </g>
     <g id="text_15">
      <!-- 90 -->
      <g style="fill:#262626;" transform="translate(38.448281 119.4504)scale(0.165 -0.165)">
       <defs>
        <path d="M 5.46875 16.546875 
L 13.921875 17.328125 
Q 14.984375 11.375 18.015625 8.6875 
Q 21.046875 6 25.78125 6 
Q 29.828125 6 32.875 7.859375 
Q 35.9375 9.71875 37.890625 12.8125 
Q 39.84375 15.921875 41.15625 21.1875 
Q 42.484375 26.46875 42.484375 31.9375 
Q 42.484375 32.515625 42.4375 33.6875 
Q 39.796875 29.5 35.234375 26.875 
Q 30.671875 24.265625 25.34375 24.265625 
Q 16.453125 24.265625 10.296875 30.703125 
Q 4.15625 37.15625 4.15625 47.703125 
Q 4.15625 58.59375 10.578125 65.234375 
Q 17 71.875 26.65625 71.875 
Q 33.640625 71.875 39.421875 68.109375 
Q 45.21875 64.359375 48.21875 57.390625 
Q 51.21875 50.4375 51.21875 37.25 
Q 51.21875 23.53125 48.234375 15.40625 
Q 45.265625 7.28125 39.375 3.03125 
Q 33.5 -1.21875 25.59375 -1.21875 
Q 17.1875 -1.21875 11.859375 3.4375 
Q 6.546875 8.109375 5.46875 16.546875 
z
M 41.453125 48.140625 
Q 41.453125 55.71875 37.421875 60.15625 
Q 33.40625 64.59375 27.734375 64.59375 
Q 21.875 64.59375 17.53125 59.8125 
Q 13.1875 55.03125 13.1875 47.40625 
Q 13.1875 40.578125 17.3125 36.296875 
Q 21.4375 32.03125 27.484375 32.03125 
Q 33.59375 32.03125 37.515625 36.296875 
Q 41.453125 40.578125 41.453125 48.140625 
z
" id="ArialMT-57"/>
       </defs>
       <use xlink:href="#ArialMT-57"/>
       <use x="55.615234" xlink:href="#ArialMT-48"/>
      </g>
     </g>
    </g>
    <g id="ytick_9">
     <g id="line2d_15">
      <path clip-path="url(#p3edf3b1684)" d="M 66.299375 77.058716 
L 628.56 77.058716 
" style="fill:none;stroke:#ffffff;stroke-linecap:round;"/>
     </g>
     <g id="text_16">
      <!-- 95 -->
      <g style="fill:#262626;" transform="translate(38.448281 82.963911)scale(0.165 -0.165)">
       <use xlink:href="#ArialMT-57"/>
       <use x="55.615234" xlink:href="#ArialMT-53"/>
      </g>
     </g>
    </g>
    <g id="text_17">
     <!-- Households with Internet (%) -->
     <g style="fill:#262626;" transform="translate(31.080781 315.480625)rotate(-90)scale(0.16 -0.16)">
      <defs>
       <path d="M 7.328125 0 
L 7.328125 71.578125 
L 21.78125 71.578125 
L 21.78125 43.40625 
L 50.09375 43.40625 
L 50.09375 71.578125 
L 64.546875 71.578125 
L 64.546875 0 
L 50.09375 0 
L 50.09375 31.296875 
L 21.78125 31.296875 
L 21.78125 0 
z
" id="Arial-BoldMT-72"/>
       <path d="M 2.34375 14.796875 
L 16.109375 16.890625 
Q 17 12.890625 19.671875 10.8125 
Q 22.359375 8.734375 27.203125 8.734375 
Q 32.515625 8.734375 35.203125 10.6875 
Q 37.015625 12.0625 37.015625 14.359375 
Q 37.015625 15.921875 36.03125 16.9375 
Q 35.015625 17.921875 31.453125 18.75 
Q 14.84375 22.40625 10.40625 25.4375 
Q 4.25 29.640625 4.25 37.109375 
Q 4.25 43.84375 9.5625 48.4375 
Q 14.890625 53.03125 26.078125 53.03125 
Q 36.71875 53.03125 41.890625 49.5625 
Q 47.078125 46.09375 49.03125 39.3125 
L 36.078125 36.921875 
Q 35.25 39.9375 32.921875 41.546875 
Q 30.609375 43.171875 26.3125 43.171875 
Q 20.90625 43.171875 18.5625 41.65625 
Q 17 40.578125 17 38.875 
Q 17 37.40625 18.359375 36.375 
Q 20.21875 35.015625 31.171875 32.515625 
Q 42.140625 30.03125 46.484375 26.421875 
Q 50.78125 22.75 50.78125 16.21875 
Q 50.78125 9.078125 44.828125 3.953125 
Q 38.875 -1.171875 27.203125 -1.171875 
Q 16.609375 -1.171875 10.421875 3.125 
Q 4.25 7.421875 2.34375 14.796875 
z
" id="Arial-BoldMT-115"/>
       <path d="M 20.84375 71.578125 
L 20.84375 45.265625 
Q 27.484375 53.03125 36.71875 53.03125 
Q 41.453125 53.03125 45.265625 51.265625 
Q 49.078125 49.515625 51 46.78125 
Q 52.9375 44.046875 53.640625 40.71875 
Q 54.34375 37.40625 54.34375 30.421875 
L 54.34375 0 
L 40.625 0 
L 40.625 27.390625 
Q 40.625 35.546875 39.84375 37.734375 
Q 39.0625 39.9375 37.078125 41.234375 
Q 35.109375 42.53125 32.125 42.53125 
Q 28.71875 42.53125 26.03125 40.859375 
Q 23.34375 39.203125 22.09375 35.859375 
Q 20.84375 32.515625 20.84375 25.984375 
L 20.84375 0 
L 7.125 0 
L 7.125 71.578125 
z
" id="Arial-BoldMT-104"/>
       <path d="M 7.171875 0 
L 7.171875 71.578125 
L 20.90625 71.578125 
L 20.90625 0 
z
" id="Arial-BoldMT-108"/>
       <path d="M 54.734375 0 
L 42 0 
L 42 7.625 
Q 38.8125 3.171875 34.484375 1 
Q 30.171875 -1.171875 25.78125 -1.171875 
Q 16.84375 -1.171875 10.46875 6.03125 
Q 4.109375 13.234375 4.109375 26.125 
Q 4.109375 39.3125 10.296875 46.171875 
Q 16.5 53.03125 25.984375 53.03125 
Q 34.671875 53.03125 41.015625 45.796875 
L 41.015625 71.578125 
L 54.734375 71.578125 
z
M 18.109375 27.046875 
Q 18.109375 18.75 20.40625 15.046875 
Q 23.734375 9.671875 29.6875 9.671875 
Q 34.421875 9.671875 37.734375 13.6875 
Q 41.0625 17.71875 41.0625 25.734375 
Q 41.0625 34.671875 37.84375 38.59375 
Q 34.625 42.53125 29.59375 42.53125 
Q 24.703125 42.53125 21.40625 38.640625 
Q 18.109375 34.765625 18.109375 27.046875 
z
" id="Arial-BoldMT-100"/>
       <path d="M 16.84375 0 
L 0.4375 51.859375 
L 13.765625 51.859375 
L 23.484375 17.875 
L 32.421875 51.859375 
L 45.65625 51.859375 
L 54.296875 17.875 
L 64.203125 51.859375 
L 77.734375 51.859375 
L 61.078125 0 
L 47.90625 0 
L 38.96875 33.34375 
L 30.171875 0 
z
" id="Arial-BoldMT-119"/>
       <path d="M 29.9375 -21.046875 
L 20.515625 -21.046875 
Q 13.03125 -9.765625 9.125 2.390625 
Q 5.21875 14.546875 5.21875 25.921875 
Q 5.21875 40.046875 10.0625 52.640625 
Q 14.265625 63.578125 20.703125 72.796875 
L 30.078125 72.796875 
Q 23.390625 58.015625 20.875 47.625 
Q 18.359375 37.25 18.359375 25.640625 
Q 18.359375 17.625 19.84375 9.21875 
Q 21.34375 0.828125 23.921875 -6.734375 
Q 25.640625 -11.71875 29.9375 -21.046875 
z
" id="Arial-BoldMT-40"/>
       <path d="M 4.34375 53.90625 
Q 4.34375 63.53125 8.5625 68.15625 
Q 12.796875 72.796875 20.015625 72.796875 
Q 27.484375 72.796875 31.703125 68.1875 
Q 35.9375 63.578125 35.9375 53.90625 
Q 35.9375 44.28125 31.703125 39.640625 
Q 27.484375 35.015625 20.265625 35.015625 
Q 12.796875 35.015625 8.5625 39.625 
Q 4.34375 44.234375 4.34375 53.90625 
z
M 15.046875 54 
Q 15.046875 47.015625 16.65625 44.625 
Q 17.875 42.875 20.015625 42.875 
Q 22.21875 42.875 23.4375 44.625 
Q 25 47.015625 25 54 
Q 25 60.984375 23.4375 63.328125 
Q 22.21875 65.140625 20.015625 65.140625 
Q 17.875 65.140625 16.65625 63.375 
Q 15.046875 60.984375 15.046875 54 
z
M 30.46875 -2.734375 
L 20.3125 -2.734375 
L 58.453125 72.796875 
L 68.3125 72.796875 
z
M 52.640625 16.0625 
Q 52.640625 25.6875 56.859375 30.328125 
Q 61.078125 34.96875 68.40625 34.96875 
Q 75.78125 34.96875 80 30.328125 
Q 84.234375 25.6875 84.234375 16.0625 
Q 84.234375 6.390625 80 1.75 
Q 75.78125 -2.875 68.5625 -2.875 
Q 61.078125 -2.875 56.859375 1.75 
Q 52.640625 6.390625 52.640625 16.0625 
z
M 63.328125 16.109375 
Q 63.328125 9.125 64.9375 6.78125 
Q 66.15625 4.984375 68.3125 4.984375 
Q 70.515625 4.984375 71.6875 6.734375 
Q 73.296875 9.125 73.296875 16.109375 
Q 73.296875 23.09375 71.734375 25.484375 
Q 70.515625 27.25 68.3125 27.25 
Q 66.109375 27.25 64.9375 25.484375 
Q 63.328125 23.09375 63.328125 16.109375 
z
" id="Arial-BoldMT-37"/>
       <path d="M 3.375 -21.046875 
Q 7.421875 -12.359375 9.078125 -7.71875 
Q 10.75 -3.078125 12.15625 2.96875 
Q 13.578125 9.03125 14.25 14.46875 
Q 14.9375 19.921875 14.9375 25.640625 
Q 14.9375 37.25 12.453125 47.625 
Q 9.96875 58.015625 3.265625 72.796875 
L 12.59375 72.796875 
Q 19.96875 62.3125 24.046875 50.53125 
Q 28.125 38.765625 28.125 26.65625 
Q 28.125 16.453125 24.90625 4.78125 
Q 21.234375 -8.296875 12.84375 -21.046875 
z
" id="Arial-BoldMT-41"/>
      </defs>
      <use xlink:href="#Arial-BoldMT-72"/>
      <use x="72.216797" xlink:href="#Arial-BoldMT-111"/>
      <use x="133.300781" xlink:href="#Arial-BoldMT-117"/>
      <use x="194.384766" xlink:href="#Arial-BoldMT-115"/>
      <use x="250" xlink:href="#Arial-BoldMT-101"/>
      <use x="305.615234" xlink:href="#Arial-BoldMT-104"/>
      <use x="366.699219" xlink:href="#Arial-BoldMT-111"/>
      <use x="427.783203" xlink:href="#Arial-BoldMT-108"/>
      <use x="455.566406" xlink:href="#Arial-BoldMT-100"/>
      <use x="516.650391" xlink:href="#Arial-BoldMT-115"/>
      <use x="572.265625" xlink:href="#Arial-BoldMT-32"/>
      <use x="600.048828" xlink:href="#Arial-BoldMT-119"/>
      <use x="677.832031" xlink:href="#Arial-BoldMT-105"/>
      <use x="705.615234" xlink:href="#Arial-BoldMT-116"/>
      <use x="738.916016" xlink:href="#Arial-BoldMT-104"/>
      <use x="800" xlink:href="#Arial-BoldMT-32"/>
      <use x="827.783203" xlink:href="#Arial-BoldMT-73"/>
      <use x="855.566406" xlink:href="#Arial-BoldMT-110"/>
      <use x="916.650391" xlink:href="#Arial-BoldMT-116"/>
      <use x="949.951172" xlink:href="#Arial-BoldMT-101"/>
      <use x="1005.566406" xlink:href="#Arial-BoldMT-114"/>
      <use x="1044.482422" xlink:href="#Arial-BoldMT-110"/>
      <use x="1105.566406" xlink:href="#Arial-BoldMT-101"/>
      <use x="1161.181641" xlink:href="#Arial-BoldMT-116"/>
      <use x="1194.482422" xlink:href="#Arial-BoldMT-32"/>
      <use x="1222.265625" xlink:href="#Arial-BoldMT-40"/>
      <use x="1255.566406" xlink:href="#Arial-BoldMT-37"/>
      <use x="1344.482422" xlink:href="#Arial-BoldMT-41"/>
     </g>
    </g>
   </g>
   <g id="PathCollection_1">
    <defs>
     <path d="M 0 3 
C 0.795609 3 1.55874 2.683901 2.12132 2.12132 
C 2.683901 1.55874 3 0.795609 3 0 
C 3 -0.795609 2.683901 -1.55874 2.12132 -2.12132 
C 1.55874 -2.683901 0.795609 -3 0 -3 
C -0.795609 -3 -1.55874 -2.683901 -2.12132 -2.12132 
C -2.683901 -1.55874 -3 -0.795609 -3 0 
C -3 0.795609 -2.683901 1.55874 -2.12132 2.12132 
C -1.55874 2.683901 -0.795609 3 0 3 
z
" id="ma3906a3aff" style="stroke:#ffffff;stroke-width:0.48;"/>
    </defs>
    <g clip-path="url(#p3edf3b1684)">
     <use style="stroke:#ffffff;stroke-width:0.48;" x="384.673996" xlink:href="#ma3906a3aff" y="155.972157"/>
     <use style="stroke:#ffffff;stroke-width:0.48;" x="513.958836" xlink:href="#ma3906a3aff" y="184.320986"/>
     <use style="stroke:#ffffff;stroke-width:0.48;" x="322.172053" xlink:href="#ma3906a3aff" y="241.80238"/>
     <use style="stroke:#ffffff;stroke-width:0.48;" x="443.751174" xlink:href="#ma3906a3aff" y="142.881187"/>
     <use style="stroke:#ffffff;stroke-width:0.48;" x="470.293095" xlink:href="#ma3906a3aff" y="265.176426"/>
     <use style="stroke:#ffffff;stroke-width:0.48;" x="510.534072" xlink:href="#ma3906a3aff" y="259.625219"/>
     <use style="stroke:#ffffff;stroke-width:0.48;" x="436.045455" xlink:href="#ma3906a3aff" y="228.149384"/>
     <use style="stroke:#ffffff;stroke-width:0.48;" x="301.623469" xlink:href="#ma3906a3aff" y="151.591311"/>
     <use style="stroke:#ffffff;stroke-width:0.48;" x="506.253117" xlink:href="#ma3906a3aff" y="201.316671"/>
     <use style="stroke:#ffffff;stroke-width:0.48;" x="292.205368" xlink:href="#ma3906a3aff" y="97.440622"/>
     <use style="stroke:#ffffff;stroke-width:0.48;" x="242.546291" xlink:href="#ma3906a3aff" y="135.03163"/>
     <use style="stroke:#ffffff;stroke-width:0.48;" x="472.861668" xlink:href="#ma3906a3aff" y="193.176872"/>
     <use style="stroke:#ffffff;stroke-width:0.48;" x="557.624576" xlink:href="#ma3906a3aff" y="348.735138"/>
     <use style="stroke:#ffffff;stroke-width:0.48;" x="452.313084" xlink:href="#ma3906a3aff" y="173.512282"/>
     <use style="stroke:#ffffff;stroke-width:0.48;" x="425.771163" xlink:href="#ma3906a3aff" y="257.439499"/>
     <use style="stroke:#ffffff;stroke-width:0.48;" x="552.48743" xlink:href="#ma3906a3aff" y="213.463971"/>
     <use style="stroke:#ffffff;stroke-width:0.48;" x="423.20259" xlink:href="#ma3906a3aff" y="161.381853"/>
     <use style="stroke:#ffffff;stroke-width:0.48;" x="365.837794" xlink:href="#ma3906a3aff" y="173.263952"/>
     <use style="stroke:#ffffff;stroke-width:0.48;" x="365.837794" xlink:href="#ma3906a3aff" y="181.227688"/>
     <use style="stroke:#ffffff;stroke-width:0.48;" x="467.724522" xlink:href="#ma3906a3aff" y="271.391963"/>
     <use style="stroke:#ffffff;stroke-width:0.48;" x="433.476882" xlink:href="#ma3906a3aff" y="165.680715"/>
     <use style="stroke:#ffffff;stroke-width:0.48;" x="205.730078" xlink:href="#ma3906a3aff" y="126.69405"/>
     <use style="stroke:#ffffff;stroke-width:0.48;" x="264.807257" xlink:href="#ma3906a3aff" y="142.941012"/>
     <use style="stroke:#ffffff;stroke-width:0.48;" x="531.082655" xlink:href="#ma3906a3aff" y="293.049143"/>
     <use style="stroke:#ffffff;stroke-width:0.48;" x="219.429134" xlink:href="#ma3906a3aff" y="104.741551"/>
     <use style="stroke:#ffffff;stroke-width:0.48;" x="486.560724" xlink:href="#ma3906a3aff" y="293.519338"/>
     <use style="stroke:#ffffff;stroke-width:0.48;" x="561.04934" xlink:href="#ma3906a3aff" y="183.577879"/>
     <use style="stroke:#ffffff;stroke-width:0.48;" x="477.142623" xlink:href="#ma3906a3aff" y="163.785685"/>
     <use style="stroke:#ffffff;stroke-width:0.48;" x="411.215916" xlink:href="#ma3906a3aff" y="209.742435"/>
     <use style="stroke:#ffffff;stroke-width:0.48;" x="451.456893" xlink:href="#ma3906a3aff" y="271.506983"/>
     <use style="stroke:#ffffff;stroke-width:0.48;" x="364.125412" xlink:href="#ma3906a3aff" y="173.701398"/>
     <use style="stroke:#ffffff;stroke-width:0.48;" x="488.273106" xlink:href="#ma3906a3aff" y="182.167712"/>
     <use style="stroke:#ffffff;stroke-width:0.48;" x="506.253117" xlink:href="#ma3906a3aff" y="218.776587"/>
     <use style="stroke:#ffffff;stroke-width:0.48;" x="200.592932" xlink:href="#ma3906a3aff" y="107.130964"/>
     <use style="stroke:#ffffff;stroke-width:0.48;" x="317.034907" xlink:href="#ma3906a3aff" y="146.583746"/>
     <use style="stroke:#ffffff;stroke-width:0.48;" x="276.793931" xlink:href="#ma3906a3aff" y="126.19123"/>
     <use style="stroke:#ffffff;stroke-width:0.48;" x="270.800594" xlink:href="#ma3906a3aff" y="159.588858"/>
     <use style="stroke:#ffffff;stroke-width:0.48;" x="102.130968" xlink:href="#ma3906a3aff" y="82.393876"/>
     <use style="stroke:#ffffff;stroke-width:0.48;" x="120.110979" xlink:href="#ma3906a3aff" y="86.209904"/>
     <use style="stroke:#ffffff;stroke-width:0.48;" x="186.037685" xlink:href="#ma3906a3aff" y="93.232729"/>
     <use style="stroke:#ffffff;stroke-width:0.48;" x="294.773941" xlink:href="#ma3906a3aff" y="129.370088"/>
     <use style="stroke:#ffffff;stroke-width:0.48;" x="128.672889" xlink:href="#ma3906a3aff" y="56.20703"/>
     <use style="stroke:#ffffff;stroke-width:0.48;" x="476.286432" xlink:href="#ma3906a3aff" y="146.826502"/>
     <use style="stroke:#ffffff;stroke-width:0.48;" x="372.687322" xlink:href="#ma3906a3aff" y="132.370118"/>
     <use style="stroke:#ffffff;stroke-width:0.48;" x="509.677881" xlink:href="#ma3906a3aff" y="211.962707"/>
     <use style="stroke:#ffffff;stroke-width:0.48;" x="428.339736" xlink:href="#ma3906a3aff" y="182.259221"/>
     <use style="stroke:#ffffff;stroke-width:0.48;" x="318.747289" xlink:href="#ma3906a3aff" y="135.114324"/>
     <use style="stroke:#ffffff;stroke-width:0.48;" x="161.208147" xlink:href="#ma3906a3aff" y="77.589078"/>
     <use style="stroke:#ffffff;stroke-width:0.48;" x="186.037685" xlink:href="#ma3906a3aff" y="78.313396"/>
     <use style="stroke:#ffffff;stroke-width:0.48;" x="228.847235" xlink:href="#ma3906a3aff" y="118.661015"/>
     <use style="stroke:#ffffff;stroke-width:0.48;" x="568.755059" xlink:href="#ma3906a3aff" y="221.022794"/>
     <use style="stroke:#ffffff;stroke-width:0.48;" x="91.856676" xlink:href="#ma3906a3aff" y="100.688332"/>
     <use style="stroke:#ffffff;stroke-width:0.48;" x="558.480767" xlink:href="#ma3906a3aff" y="259.392324"/>
     <use style="stroke:#ffffff;stroke-width:0.48;" x="405.22258" xlink:href="#ma3906a3aff" y="142.260444"/>
     <use style="stroke:#ffffff;stroke-width:0.48;" x="324.740626" xlink:href="#ma3906a3aff" y="168.476656"/>
     <use style="stroke:#ffffff;stroke-width:0.48;" x="220.285325" xlink:href="#ma3906a3aff" y="183.418023"/>
     <use style="stroke:#ffffff;stroke-width:0.48;" x="325.596817" xlink:href="#ma3906a3aff" y="182.319922"/>
     <use style="stroke:#ffffff;stroke-width:0.48;" x="351.282547" xlink:href="#ma3906a3aff" y="146.423782"/>
     <use style="stroke:#ffffff;stroke-width:0.48;" x="454.881657" xlink:href="#ma3906a3aff" y="167.1793"/>
     <use style="stroke:#ffffff;stroke-width:0.48;" x="362.41303" xlink:href="#ma3906a3aff" y="218.514663"/>
     <use style="stroke:#ffffff;stroke-width:0.48;" x="322.172053" xlink:href="#ma3906a3aff" y="159.793945"/>
     <use style="stroke:#ffffff;stroke-width:0.48;" x="525.94551" xlink:href="#ma3906a3aff" y="230.67822"/>
     <use style="stroke:#ffffff;stroke-width:0.48;" x="432.620691" xlink:href="#ma3906a3aff" y="196.97176"/>
     <use style="stroke:#ffffff;stroke-width:0.48;" x="507.109308" xlink:href="#ma3906a3aff" y="204.369468"/>
     <use style="stroke:#ffffff;stroke-width:0.48;" x="555.912194" xlink:href="#ma3906a3aff" y="259.676841"/>
     <use style="stroke:#ffffff;stroke-width:0.48;" x="448.032129" xlink:href="#ma3906a3aff" y="226.946769"/>
     <use style="stroke:#ffffff;stroke-width:0.48;" x="266.519639" xlink:href="#ma3906a3aff" y="144.255563"/>
     <use style="stroke:#ffffff;stroke-width:0.48;" x="513.102645" xlink:href="#ma3906a3aff" y="207.859262"/>
     <use style="stroke:#ffffff;stroke-width:0.48;" x="410.359725" xlink:href="#ma3906a3aff" y="230.985586"/>
     <use style="stroke:#ffffff;stroke-width:0.48;" x="473.717859" xlink:href="#ma3906a3aff" y="175.890091"/>
     <use style="stroke:#ffffff;stroke-width:0.48;" x="603.002699" xlink:href="#ma3906a3aff" y="318.520549"/>
     <use style="stroke:#ffffff;stroke-width:0.48;" x="463.443567" xlink:href="#ma3906a3aff" y="278.589822"/>
     <use style="stroke:#ffffff;stroke-width:0.48;" x="472.861668" xlink:href="#ma3906a3aff" y="178.459044"/>
     <use style="stroke:#ffffff;stroke-width:0.48;" x="478.855005" xlink:href="#ma3906a3aff" y="190.401628"/>
     <use style="stroke:#ffffff;stroke-width:0.48;" x="365.837794" xlink:href="#ma3906a3aff" y="144.892312"/>
     <use style="stroke:#ffffff;stroke-width:0.48;" x="213.435797" xlink:href="#ma3906a3aff" y="102.066418"/>
     <use style="stroke:#ffffff;stroke-width:0.48;" x="381.249232" xlink:href="#ma3906a3aff" y="209.508917"/>
    </g>
   </g>
   <g id="line2d_16">
    <path clip-path="url(#p3edf3b1684)" d="M 384.673996 175.817624 
L 513.958836 224.269918 
L 322.172053 152.393667 
L 443.751174 197.958076 
L 470.293095 207.905236 
L 510.534072 222.986413 
L 436.045455 195.070191 
L 301.623469 144.69264 
L 506.253117 221.382033 
L 292.205368 141.163003 
L 242.546291 122.552188 
L 472.861668 208.867864 
L 557.624576 240.6346 
L 452.313084 201.166837 
L 425.771163 191.219677 
L 552.48743 238.709343 
L 423.20259 190.257049 
L 365.837794 168.758349 
L 365.837794 168.758349 
L 467.724522 206.942607 
L 433.476882 194.107562 
L 205.730078 108.754515 
L 264.807257 130.894967 
L 531.082655 230.68744 
L 219.429134 113.888532 
L 486.560724 214.001882 
L 561.04934 241.918104 
L 477.142623 210.472245 
L 411.215916 185.764783 
L 451.456893 200.845961 
L 364.125412 168.116597 
L 488.273106 214.643634 
L 506.253117 221.382033 
L 200.592932 106.829258 
L 317.034907 150.46841 
L 276.793931 135.387232 
L 270.800594 133.1411 
L 102.130968 69.928504 
L 120.110979 76.666903 
L 186.037685 101.374364 
L 294.773941 142.125631 
L 128.672889 79.875664 
L 476.286432 210.151368 
L 372.687322 171.325358 
L 509.677881 222.665537 
L 428.339736 192.182306 
L 318.747289 151.110162 
L 161.208147 92.068956 
L 186.037685 101.374364 
L 228.847235 117.41817 
L 568.755059 244.805989 
L 91.856676 66.077991 
L 558.480767 240.955476 
L 405.22258 183.51865 
L 324.740626 153.356295 
L 220.285325 114.209409 
L 325.596817 153.677171 
L 351.282547 163.303455 
L 454.881657 202.129465 
L 362.41303 167.474844 
L 322.172053 152.393667 
L 525.94551 228.762183 
L 432.620691 193.786686 
L 507.109308 221.702909 
L 555.912194 239.992848 
L 448.032129 199.562456 
L 266.519639 131.536719 
L 513.102645 223.949042 
L 410.359725 185.443907 
L 473.717859 209.18874 
L 603.002699 257.641034 
L 463.443567 205.338227 
L 472.861668 208.867864 
L 478.855005 211.113997 
L 365.837794 168.758349 
L 213.435797 111.6424 
L 381.249232 174.534119 
" style="fill:none;stroke:#0000ff;stroke-linecap:round;stroke-width:1.5;"/>
   </g>
   <g id="patch_3">
    <path d="M 66.299375 368.950625 
L 66.299375 41.580625 
" style="fill:none;stroke:#ffffff;stroke-linecap:square;stroke-linejoin:miter;stroke-width:1.25;"/>
   </g>
   <g id="patch_4">
    <path d="M 66.299375 368.950625 
L 628.56 368.950625 
" style="fill:none;stroke:#ffffff;stroke-linecap:square;stroke-linejoin:miter;stroke-width:1.25;"/>
   </g>
   <g id="text_18">
    <!-- Internet Access by CCVI -->
    <g style="fill:#262626;" transform="translate(220.694219 35.580625)scale(0.22 -0.22)">
     <defs>
      <path d="M 52.390625 36.53125 
L 38.875 34.078125 
Q 38.1875 38.140625 35.765625 40.1875 
Q 33.34375 42.234375 29.5 42.234375 
Q 24.359375 42.234375 21.3125 38.6875 
Q 18.265625 35.15625 18.265625 26.859375 
Q 18.265625 17.625 21.359375 13.8125 
Q 24.46875 10.015625 29.6875 10.015625 
Q 33.59375 10.015625 36.078125 12.234375 
Q 38.578125 14.453125 39.59375 19.875 
L 53.078125 17.578125 
Q 50.984375 8.296875 45.015625 3.5625 
Q 39.0625 -1.171875 29.046875 -1.171875 
Q 17.671875 -1.171875 10.90625 6 
Q 4.15625 13.1875 4.15625 25.875 
Q 4.15625 38.71875 10.9375 45.875 
Q 17.71875 53.03125 29.296875 53.03125 
Q 38.765625 53.03125 44.359375 48.953125 
Q 49.953125 44.875 52.390625 36.53125 
z
" id="Arial-BoldMT-99"/>
      <path d="M 6.59375 0 
L 6.59375 71.578125 
L 20.3125 71.578125 
L 20.3125 45.796875 
Q 26.65625 53.03125 35.359375 53.03125 
Q 44.828125 53.03125 51.03125 46.171875 
Q 57.234375 39.3125 57.234375 26.46875 
Q 57.234375 13.1875 50.90625 6 
Q 44.578125 -1.171875 35.546875 -1.171875 
Q 31.109375 -1.171875 26.78125 1.046875 
Q 22.46875 3.265625 19.34375 7.625 
L 19.34375 0 
z
M 20.21875 27.046875 
Q 20.21875 19 22.75 15.140625 
Q 26.3125 9.671875 32.234375 9.671875 
Q 36.765625 9.671875 39.96875 13.546875 
Q 43.171875 17.4375 43.171875 25.78125 
Q 43.171875 34.671875 39.9375 38.59375 
Q 36.71875 42.53125 31.6875 42.53125 
Q 26.765625 42.53125 23.484375 38.6875 
Q 20.21875 34.859375 20.21875 27.046875 
z
" id="Arial-BoldMT-98"/>
     </defs>
     <use xlink:href="#Arial-BoldMT-73"/>
     <use x="27.783203" xlink:href="#Arial-BoldMT-110"/>
     <use x="88.867188" xlink:href="#Arial-BoldMT-116"/>
     <use x="122.167969" xlink:href="#Arial-BoldMT-101"/>
     <use x="177.783203" xlink:href="#Arial-BoldMT-114"/>
     <use x="216.699219" xlink:href="#Arial-BoldMT-110"/>
     <use x="277.783203" xlink:href="#Arial-BoldMT-101"/>
     <use x="333.398438" xlink:href="#Arial-BoldMT-116"/>
     <use x="366.699219" xlink:href="#Arial-BoldMT-32"/>
     <use x="390.732422" xlink:href="#Arial-BoldMT-65"/>
     <use x="462.949219" xlink:href="#Arial-BoldMT-99"/>
     <use x="518.564453" xlink:href="#Arial-BoldMT-99"/>
     <use x="574.179688" xlink:href="#Arial-BoldMT-101"/>
     <use x="629.794922" xlink:href="#Arial-BoldMT-115"/>
     <use x="685.410156" xlink:href="#Arial-BoldMT-115"/>
     <use x="741.025391" xlink:href="#Arial-BoldMT-32"/>
     <use x="768.808594" xlink:href="#Arial-BoldMT-98"/>
     <use x="829.892578" xlink:href="#Arial-BoldMT-121"/>
     <use x="885.507812" xlink:href="#Arial-BoldMT-32"/>
     <use x="913.291016" xlink:href="#Arial-BoldMT-67"/>
     <use x="985.507812" xlink:href="#Arial-BoldMT-67"/>
     <use x="1057.724609" xlink:href="#Arial-BoldMT-86"/>
     <use x="1124.423828" xlink:href="#Arial-BoldMT-73"/>
    </g>
   </g>
  </g>
 </g>
 <defs>
  <clipPath id="p3edf3b1684">
   <rect height="327.37" width="562.260625" x="66.299375" y="41.580625"/>
  </clipPath>
 </defs>
</svg>
